<?xml version="1.0" standalone="no"?>
<!DOCTYPE svg PUBLIC "-//W3C//DTD SVG 20010904//EN"
 "http://www.w3.org/TR/2001/REC-SVG-20010904/DTD/svg10.dtd">
<svg version="1.0" xmlns="http://www.w3.org/2000/svg"
 width="360.000000pt" height="360.000000pt" viewBox="0 0 360.000000 360.000000"
 preserveAspectRatio="xMidYMid meet">

<g transform="translate(0.000000,360.000000) scale(0.100000,-0.100000)"
fill="#000000" stroke="none">
<path d="M1152 2848 c-8 -8 -12 -48 -12 -115 l0 -103 -294 0 c-293 0 -295 0
-310 -22 -14 -20 -16 -112 -16 -790 l0 -768 -48 0 c-27 0 -57 -7 -70 -16 -21
-14 -22 -22 -22 -139 0 -99 3 -127 16 -139 14 -14 155 -16 1404 -16 1249 0
1390 2 1404 16 13 12 16 40 16 139 0 117 -1 125 -22 139 -13 9 -43 16 -70 16
l-48 0 -2 780 c-3 681 -5 782 -18 790 -9 6 -141 10 -307 10 l-293 0 0 99 c0
77 -4 103 -16 115 -14 14 -86 16 -648 16 -478 0 -635 -3 -644 -12z m1218 -933
l0 -865 -165 0 -165 0 0 298 c0 218 -3 301 -12 310 -17 17 -439 17 -456 0 -9
-9 -12 -92 -12 -310 l0 -298 -170 0 -170 0 0 865 0 865 575 0 575 0 0 -865z
m-1230 -115 l0 -750 -265 0 -265 0 0 750 0 750 265 0 265 0 0 -750z m1850 0
l0 -750 -265 0 -265 0 0 750 0 750 265 0 265 0 0 -750z m-1030 -480 l0 -270
-160 0 -160 0 0 270 0 270 160 0 160 0 0 -270z m1178 -427 l-3 -68 -1337 -3
-1338 -2 0 70 0 70 1340 0 1341 0 -3 -67z"/>
<path d="M1336 2704 c-13 -13 -16 -44 -16 -184 0 -157 1 -170 19 -180 11 -5
86 -10 171 -10 85 0 160 5 171 10 18 10 19 23 19 185 0 162 -1 175 -19 185
-11 6 -87 10 -175 10 -127 0 -157 -3 -170 -16z m282 -181 l-3 -108 -105 0
-105 0 -3 108 -3 107 111 0 111 0 -3 -107z"/>
<path d="M1850 2700 c-18 -18 -20 -33 -20 -178 0 -141 2 -161 18 -175 16 -14
43 -17 175 -17 208 0 197 -11 197 195 0 142 -2 157 -20 175 -18 18 -33 20
-175 20 -142 0 -157 -2 -175 -20z m280 -180 l0 -111 -107 3 -108 3 -3 108 -3
107 111 0 110 0 0 -110z"/>
<path d="M1332 2248 c-8 -8 -12 -61 -12 -180 0 -155 1 -168 19 -178 29 -15
323 -13 344 3 16 11 17 31 15 187 l-3 175 -175 3 c-128 2 -179 -1 -188 -10z
m288 -178 l0 -110 -110 0 -110 0 0 110 0 110 110 0 110 0 0 -110z"/>
<path d="M1840 2241 c-6 -11 -10 -87 -10 -175 0 -127 3 -157 16 -170 13 -13
44 -16 179 -16 207 0 195 -12 195 193 0 83 -5 157 -10 168 -10 18 -23 19 -185
19 -162 0 -175 -1 -185 -19z m290 -171 l0 -111 -107 3 -108 3 -3 108 -3 107
111 0 110 0 0 -110z"/>
<path d="M697 2412 c-14 -16 -17 -43 -17 -171 0 -86 5 -161 10 -172 10 -18 23
-19 185 -19 162 0 175 1 185 19 5 11 10 85 10 168 0 205 12 193 -194 193 -145
0 -165 -2 -179 -18z m267 -68 c13 -5 16 -25 16 -110 l0 -104 -110 0 -110 0 0
103 c0 57 3 107 7 110 8 9 176 9 197 1z"/>
<path d="M697 1972 c-14 -16 -17 -43 -17 -171 0 -86 5 -161 10 -172 10 -18 23
-19 185 -19 162 0 175 1 185 19 5 11 10 85 10 168 0 205 12 193 -194 193 -145
0 -165 -2 -179 -18z m283 -177 l0 -105 -110 0 -110 0 0 105 0 105 110 0 110 0
0 -105z"/>
<path d="M700 1530 c-18 -18 -20 -33 -20 -178 0 -141 2 -161 18 -175 16 -14
44 -17 180 -17 204 0 192 -13 192 197 0 204 11 193 -195 193 -142 0 -157 -2
-175 -20z m280 -180 l0 -111 -107 3 -108 3 -3 108 -3 107 111 0 110 0 0 -110z"/>
<path d="M2546 2408 c-13 -18 -16 -53 -16 -171 0 -83 5 -157 10 -168 10 -18
23 -19 185 -19 162 0 175 1 185 19 5 11 10 87 10 174 0 136 -2 156 -18 170
-16 14 -44 17 -180 17 -155 0 -161 -1 -176 -22z m282 -170 l3 -108 -111 0
-110 0 0 103 c0 57 3 107 7 111 4 4 52 5 107 4 l101 -3 3 -107z"/>
<path d="M2546 1968 c-13 -18 -16 -53 -16 -171 0 -83 5 -157 10 -168 10 -18
23 -19 185 -19 162 0 175 1 185 19 5 11 10 87 10 174 0 136 -2 156 -18 170
-16 14 -44 17 -180 17 -155 0 -161 -1 -176 -22z m284 -173 l0 -105 -110 0
-110 0 0 105 0 105 110 0 110 0 0 -105z"/>
<path d="M2550 1530 c-18 -18 -20 -33 -20 -173 0 -210 -13 -197 194 -197 145
0 165 2 179 18 14 16 17 43 17 175 0 208 11 197 -195 197 -142 0 -157 -2 -175
-20z m280 -180 l0 -111 -107 3 -108 3 -3 108 -3 107 111 0 110 0 0 -110z"/>
</g>
</svg>
