<?xml version="1.0" standalone="no"?>
<!DOCTYPE svg PUBLIC "-//W3C//DTD SVG 20010904//EN"
 "http://www.w3.org/TR/2001/REC-SVG-20010904/DTD/svg10.dtd">
<svg version="1.0" xmlns="http://www.w3.org/2000/svg"
 width="1024.000000pt" height="1024.000000pt" viewBox="0 0 1024.000000 1024.000000"
 preserveAspectRatio="xMidYMid meet">

<g transform="translate(0.000000,1024.000000) scale(0.100000,-0.100000)"
fill="#000000" stroke="none">
<path d="M4085 10139 c-666 -46 -1247 -497 -1460 -1132 -19 -58 -45 -152 -58
-209 -22 -101 -22 -117 -22 -753 0 -648 0 -650 23 -735 31 -115 100 -257 173
-357 106 -147 164 -294 190 -488 5 -44 14 -179 19 -300 17 -438 124 -855 311
-1204 120 -224 309 -452 468 -563 21 -15 21 -20 19 -198 l-3 -182 -105 -39
c-58 -21 -136 -50 -175 -63 -180 -63 -375 -134 -1105 -399 -432 -157 -866
-315 -965 -350 -420 -151 -482 -179 -615 -272 -87 -61 -218 -194 -277 -280
-62 -92 -121 -216 -148 -313 -14 -48 -82 -404 -152 -792 -144 -804 -148 -837
-99 -986 59 -184 202 -332 379 -394 31 -11 101 -25 154 -30 100 -11 1916 -9
6788 7 l2270 8 73 27 c95 34 156 74 229 151 72 75 103 127 139 232 47 139 44
179 -89 980 -125 751 -141 821 -223 984 -113 226 -325 434 -549 537 -38 17
-225 88 -415 157 -190 69 -500 182 -690 250 -190 69 -520 189 -733 266 -213
78 -401 141 -417 141 -22 0 -349 110 -492 165 -16 7 -18 26 -18 210 l0 203 82
68 c309 258 554 710 662 1222 33 156 64 374 71 497 12 217 111 502 268 774 70
121 100 196 117 301 7 43 10 288 8 735 l-3 670 -28 90 c-31 101 -94 232 -153
321 -86 131 -253 278 -385 339 l-53 24 3 85 c6 173 -40 289 -158 406 -91 90
-181 139 -326 175 l-98 25 -1161 -1 c-638 -1 -1210 -5 -1271 -10z m2529 -342
c82 -38 122 -71 148 -120 30 -56 29 -147 -1 -246 -21 -65 -22 -78 -11 -115 17
-58 65 -98 139 -119 189 -53 329 -169 429 -357 86 -160 82 -118 82 -865 0
-638 -1 -663 -20 -721 -11 -32 -28 -69 -38 -81 -16 -22 -17 -11 -17 230 0 233
-2 259 -23 337 -79 290 -281 536 -548 669 -80 40 -953 353 -1054 378 -70 18
-238 20 -315 3 -32 -7 -111 -33 -175 -58 -138 -54 -429 -158 -485 -174 -25 -7
-210 -13 -500 -17 l-460 -6 -92 -32 c-176 -61 -291 -131 -417 -252 -131 -127
-216 -261 -284 -446 l-36 -100 -6 -230 -5 -230 -26 70 c-48 127 -51 176 -46
780 3 527 5 565 25 652 64 280 179 490 372 683 212 213 488 351 776 389 38 5
623 8 1299 7 l1230 -1 59 -28z m-919 -1351 c97 -26 874 -305 932 -334 133 -67
237 -171 303 -302 61 -122 59 -85 60 -983 l2 -822 -26 -135 c-67 -345 -173
-624 -327 -860 -76 -116 -278 -324 -324 -334 -38 -8 -175 -106 -332 -237 -160
-133 -245 -191 -371 -251 -278 -132 -587 -151 -842 -52 -150 59 -331 170 -565
349 -184 140 -240 175 -280 175 -24 0 -49 20 -135 108 -58 59 -131 147 -163
195 -146 221 -262 519 -322 834 -42 217 -45 291 -45 1064 0 730 0 747 21 809
81 246 249 424 485 512 57 21 77 23 519 29 362 5 472 9 515 21 71 20 282 93
440 153 69 27 145 54 170 61 61 17 224 17 285 0z m483 -4451 c-7 -7 -103 -73
-213 -147 -110 -74 -345 -232 -522 -351 l-322 -217 -398 273 c-219 150 -455
313 -525 360 -70 48 -129 95 -132 105 -3 9 -5 43 -5 75 1 46 4 57 15 53 8 -3
80 -47 160 -97 164 -102 371 -206 487 -243 247 -80 527 -78 812 6 183 54 434
190 590 321 l60 50 3 -88 c2 -63 -1 -92 -10 -100z m-2094 -397 c108 -73 333
-225 501 -338 167 -113 304 -207 305 -210 0 -3 -70 -98 -155 -213 -85 -114
-163 -222 -172 -241 -10 -18 -83 -121 -162 -229 l-144 -197 -17 28 c-9 15 -80
142 -157 282 -77 140 -232 422 -345 625 -262 474 -262 474 -257 480 5 5 389
143 400 144 4 1 95 -59 203 -131z m2619 10 c31 -11 57 -24 57 -29 0 -5 -33
-69 -74 -141 -40 -73 -169 -306 -286 -518 -281 -508 -412 -744 -414 -747 -2
-2 -30 34 -63 80 -33 45 -127 174 -210 287 -316 433 -364 503 -355 512 5 5
234 159 508 342 l499 333 140 -50 c77 -27 166 -58 198 -69z m1074 -367 c241
-88 638 -232 882 -320 244 -89 478 -179 520 -201 154 -81 291 -222 370 -385
55 -113 64 -149 120 -488 177 -1063 183 -1103 178 -1162 -7 -100 -63 -188
-148 -230 l-48 -25 -2047 0 c-1126 0 -2049 1 -2051 3 -2 2 230 218 514 479
1039 953 1139 1045 1156 1071 9 14 19 43 23 64 5 33 -3 56 -65 181 -39 78 -70
142 -68 143 1 1 115 7 252 13 264 13 286 18 331 68 12 12 25 34 29 47 20 65
10 92 -194 500 -111 220 -199 401 -196 401 2 0 201 -72 442 -159z m-4857 134
c0 -2 -90 -185 -200 -405 -122 -244 -200 -412 -200 -430 0 -61 39 -122 95
-145 20 -9 113 -16 272 -21 l241 -7 -70 -141 c-61 -123 -69 -146 -64 -179 4
-21 14 -50 23 -64 14 -21 635 -595 1522 -1408 l175 -160 -485 -3 c-266 -1
-1190 -1 -2054 0 l-1570 3 -49 25 c-98 50 -166 159 -166 268 0 63 246 1442
272 1522 64 199 206 366 399 468 41 22 351 140 689 263 338 122 734 266 880
320 255 93 290 105 290 94z m4244 -345 c87 -176 156 -323 153 -326 -2 -3 -110
-10 -238 -15 -129 -6 -250 -15 -270 -20 -40 -10 -86 -51 -100 -87 -19 -48 -10
-108 24 -174 19 -35 62 -118 97 -186 l63 -123 -29 -28 c-16 -16 -225 -208
-464 -427 -239 -219 -490 -449 -558 -512 -67 -63 -124 -113 -127 -111 -2 3 99
189 224 414 125 226 317 572 426 770 109 198 265 479 345 625 81 146 178 322
216 392 38 70 71 128 74 128 3 0 77 -144 164 -320z m-3689 -100 c65 -118 173
-314 240 -435 101 -183 234 -423 372 -675 14 -25 114 -205 222 -400 248 -445
226 -404 208 -393 -19 11 -1167 1066 -1167 1073 0 3 41 84 92 180 88 168 92
178 93 240 0 72 -16 104 -70 136 -29 18 -161 27 -488 33 l-47 1 161 321 160
322 53 -94 c29 -52 105 -191 171 -309z m1750 -259 c53 -73 99 -139 102 -147 2
-7 -27 -59 -65 -116 -87 -130 -92 -139 -92 -182 0 -20 41 -299 90 -620 l90
-585 -112 -206 c-61 -113 -115 -205 -118 -205 -3 0 -57 92 -118 205 l-112 206
90 585 c49 321 90 602 90 623 0 32 -15 61 -81 161 -44 67 -79 128 -77 135 4
20 202 285 210 283 3 -2 50 -63 103 -137z m-484 -472 c6 -13 -6 -118 -41 -346
-28 -180 -53 -339 -56 -352 -4 -20 -24 10 -110 164 -57 103 -104 191 -104 195
0 7 92 135 223 313 52 70 62 73 88 26z m938 -152 c72 -97 131 -181 131 -186 0
-4 -47 -93 -104 -196 -86 -154 -106 -184 -110 -164 -19 86 -105 683 -100 692
16 27 38 47 45 40 4 -5 66 -88 138 -186z"/>
</g>
</svg>
