<?xml version="1.0" standalone="no"?>
<!DOCTYPE svg PUBLIC "-//W3C//DTD SVG 20010904//EN"
 "http://www.w3.org/TR/2001/REC-SVG-20010904/DTD/svg10.dtd">
<svg version="1.0" xmlns="http://www.w3.org/2000/svg"
 width="1024.000000pt" height="1024.000000pt" viewBox="0 0 1024.000000 1024.000000"
 preserveAspectRatio="xMidYMid meet">

<g transform="translate(0.000000,1024.000000) scale(0.100000,-0.100000)"
fill="#000000" stroke="none">
<path d="M4100 9509 c-542 -226 -996 -420 -1009 -432 -13 -12 -138 -251 -277
-530 -260 -520 -268 -539 -244 -602 6 -15 167 -218 358 -451 l347 -425 5 -284
c6 -312 5 -308 74 -359 l27 -21 1739 0 1739 0 27 21 c69 51 68 47 74 359 l5
284 347 425 c191 233 352 436 358 451 24 63 16 82 -244 602 -139 279 -264 518
-277 530 -35 32 -1989 843 -2031 843 -20 0 -402 -155 -1018 -411z m1929 -301
l893 -372 204 -408 204 -408 -255 -312 c-141 -172 -262 -317 -269 -322 -9 -6
-27 1 -57 21 -158 109 -454 217 -749 274 -63 12 -116 23 -118 25 -2 1 4 48 13
105 8 57 18 183 22 279 7 194 1 229 -45 272 -15 15 -178 100 -362 189 -309
150 -339 163 -390 163 -51 0 -83 -14 -425 -181 l-370 -180 1 -209 c1 -140 7
-247 18 -323 9 -62 16 -114 14 -115 -2 -2 -57 -13 -123 -26 -286 -54 -587
-165 -744 -273 -30 -20 -48 -27 -57 -21 -7 5 -128 150 -269 322 l-255 312 204
408 203 407 889 372 c489 204 898 372 909 372 11 1 422 -166 914 -371z m-666
-943 l237 -115 0 -37 c0 -21 -5 -90 -11 -153 -23 -252 -79 -398 -206 -531 -69
-72 -237 -199 -263 -199 -26 0 -171 110 -251 189 -101 102 -155 198 -187 338
-20 83 -42 273 -42 355 l0 37 233 115 c127 63 237 115 243 115 6 1 117 -51
247 -114z m-839 -935 c92 -134 230 -255 436 -381 96 -58 110 -64 160 -64 49 0
65 6 155 60 198 119 339 240 431 373 26 37 50 71 54 75 10 11 304 -48 437 -89
142 -43 290 -107 376 -164 l67 -44 0 -188 0 -188 -1520 0 -1520 0 0 185 0 184
48 36 c103 79 315 164 547 219 125 29 242 53 266 55 9 1 36 -29 63 -69z"/>
<path d="M3363 6219 c-23 -11 -49 -32 -58 -46 -28 -43 -55 -135 -61 -208 -7
-77 18 -313 42 -410 35 -138 125 -258 246 -331 128 -76 109 -45 363 -584 94
-201 194 -399 220 -439 220 -334 580 -521 1005 -521 271 0 499 68 707 212 90
63 234 211 297 308 27 41 127 239 221 440 254 540 235 508 365 586 91 54 155
124 200 219 46 97 54 130 75 310 20 159 16 251 -14 338 -28 80 -54 113 -106
132 -50 20 -93 15 -143 -15 -69 -42 -87 -114 -55 -217 16 -50 16 -63 0 -196
-25 -218 -42 -252 -166 -326 -76 -45 -144 -107 -189 -174 -18 -25 -120 -232
-227 -459 -107 -227 -216 -443 -241 -480 -94 -139 -246 -253 -407 -309 -106
-36 -187 -49 -317 -49 -130 0 -211 13 -317 49 -160 55 -314 172 -407 308 -25
38 -134 254 -241 481 -107 227 -209 434 -227 460 -46 67 -117 132 -191 176
-122 71 -139 105 -164 323 -16 133 -16 146 0 196 35 111 12 182 -73 225 -55
27 -83 28 -137 1z"/>
<path d="M4085 3819 c-78 -40 -519 -344 -540 -372 -15 -21 -20 -44 -20 -85 1
-56 7 -68 405 -784 223 -400 409 -728 414 -728 10 0 241 125 262 142 9 6 -87
188 -328 621 -187 337 -350 631 -364 653 l-23 42 125 83 125 83 410 -410 409
-409 0 -1007 0 -1008 -1975 0 c-1086 0 -1975 3 -1975 7 0 25 298 1154 326
1235 78 225 214 444 389 626 l100 104 119 -271 c72 -163 130 -281 145 -295 31
-29 71 -46 112 -46 39 0 877 336 908 363 30 28 51 77 51 119 -1 18 -48 157
-105 308 -56 151 -102 277 -100 278 2 2 71 17 153 32 165 31 178 36 216 80 30
36 41 85 31 137 -9 48 -71 109 -120 119 -23 4 -137 -13 -347 -51 -468 -85
-582 -117 -813 -230 -507 -249 -894 -699 -1064 -1235 -16 -52 -107 -394 -201
-760 -131 -505 -170 -674 -167 -704 6 -43 29 -79 71 -110 l27 -21 4379 0 4379
0 27 21 c42 31 65 67 71 110 4 30 -34 190 -157 664 -88 344 -175 675 -192 735
-93 332 -261 622 -506 877 -280 289 -603 478 -981 572 -174 44 -719 139 -756
132 -49 -10 -111 -71 -120 -119 -10 -54 2 -103 36 -142 36 -40 56 -48 219 -76
69 -12 130 -24 137 -28 7 -4 -22 -94 -92 -281 -57 -151 -104 -290 -105 -308 0
-42 21 -91 51 -119 31 -27 869 -363 908 -363 41 0 81 17 112 46 15 14 73 132
145 295 l119 271 100 -104 c55 -58 130 -147 167 -199 82 -113 195 -339 237
-469 26 -83 311 -1174 311 -1193 0 -4 -367 -7 -815 -7 l-815 0 0 370 0 370
-800 0 -800 0 0 -370 0 -370 -360 0 -360 0 0 1008 0 1007 409 409 410 410 125
-83 125 -83 -23 -42 c-14 -22 -177 -316 -364 -653 -239 -430 -337 -615 -328
-621 21 -17 253 -142 262 -142 5 0 191 328 414 728 398 716 404 728 405 784 0
41 -5 64 -20 85 -28 38 -541 381 -582 389 -87 16 -74 26 -551 -449 l-442 -442
-438 437 c-240 240 -450 442 -465 448 -43 16 -88 12 -132 -11z m-1374 -1024
c43 -115 77 -215 75 -220 -4 -12 -495 -210 -502 -202 -12 12 -191 423 -187
430 7 13 182 97 274 133 94 36 226 74 247 71 8 -1 48 -91 93 -212z m5079 168
c101 -32 342 -142 352 -159 5 -8 -173 -418 -186 -432 -6 -5 -486 185 -500 198
-4 4 24 95 64 202 40 106 77 203 81 216 8 20 13 22 46 16 21 -4 85 -22 143
-41z m-510 -2113 l0 -210 -480 0 -480 0 0 210 0 210 480 0 480 0 0 -210z"/>
</g>
</svg>
