<?xml version="1.0" standalone="no"?>
<!DOCTYPE svg PUBLIC "-//W3C//DTD SVG 20010904//EN"
 "http://www.w3.org/TR/2001/REC-SVG-20010904/DTD/svg10.dtd">
<svg version="1.0" xmlns="http://www.w3.org/2000/svg"
 width="500.000000pt" height="500.000000pt" viewBox="0 0 500.000000 500.000000"
 preserveAspectRatio="xMidYMid meet">

<g transform="translate(0.000000,500.000000) scale(0.100000,-0.100000)"
fill="#000000" stroke="none">
<path d="M1478 4435 c-94 -18 -197 -56 -260 -96 -71 -46 -143 -130 -168 -197
-12 -31 -32 -68 -45 -82 -12 -14 -33 -45 -46 -70 -20 -40 -23 -64 -28 -222 -6
-173 -7 -177 -32 -205 -41 -44 -51 -70 -56 -153 -10 -146 55 -332 165 -469 29
-35 52 -70 52 -78 0 -32 100 -234 149 -301 29 -40 52 -74 50 -76 -21 -15 -179
-94 -384 -190 -505 -237 -524 -247 -601 -329 -83 -88 -142 -196 -179 -325 -32
-115 -55 -264 -55 -358 0 -91 12 -102 151 -148 124 -40 410 -106 462 -106 45
0 77 29 77 69 0 56 -22 68 -195 104 -175 38 -331 82 -341 98 -9 16 16 188 42
277 37 127 89 227 153 291 51 51 80 67 326 183 149 70 290 135 315 146 25 10
114 55 197 100 l153 81 57 -35 c80 -48 157 -75 234 -81 59 -5 69 -3 88 16 27
27 28 84 3 109 -12 12 -41 21 -80 25 -113 12 -226 86 -330 216 -58 73 -135
220 -153 293 -7 30 -28 66 -60 104 -89 105 -149 248 -149 354 0 43 3 49 38 71
33 22 38 29 44 79 3 30 6 119 7 198 1 157 10 194 61 247 15 17 34 50 40 75 25
97 106 172 226 210 101 31 285 45 411 31 165 -19 267 -59 356 -142 48 -45 94
-52 127 -19 25 25 26 81 3 108 -30 34 -145 113 -203 139 -120 53 -184 65 -370
69 -124 2 -197 -1 -252 -11z"/>
<path d="M3108 4440 c-77 -14 -160 -40 -222 -71 -70 -35 -191 -123 -200 -145
-12 -31 -6 -74 14 -94 33 -33 79 -26 127 19 89 83 191 123 356 142 126 14 310
0 411 -31 120 -38 201 -113 226 -210 6 -25 25 -58 40 -75 51 -53 60 -90 61
-247 1 -79 4 -168 7 -198 6 -50 11 -57 45 -79 34 -22 37 -28 37 -71 0 -106
-60 -249 -149 -354 -32 -38 -53 -74 -60 -104 -18 -73 -95 -220 -153 -293 -104
-130 -217 -204 -330 -216 -39 -4 -68 -13 -80 -25 -25 -25 -24 -82 3 -109 42
-42 196 -11 323 66 l57 34 160 -85 c87 -47 176 -92 197 -100 20 -8 159 -72
307 -142 246 -116 275 -132 326 -183 64 -64 116 -164 153 -291 26 -90 51 -261
41 -277 -9 -16 -155 -58 -335 -96 -178 -39 -200 -50 -200 -106 0 -41 32 -69
78 -69 51 0 314 60 453 104 146 45 159 57 159 152 0 93 -24 243 -56 356 -37
131 -95 238 -178 325 -77 82 -96 92 -601 329 -205 96 -363 175 -384 190 -2 2
21 36 50 76 49 67 149 269 149 301 0 8 23 43 52 78 110 137 175 323 164 472
-6 84 -14 107 -55 150 -26 28 -26 32 -32 205 -5 158 -8 182 -28 222 -13 25
-34 56 -46 70 -13 14 -34 52 -46 85 -30 81 -127 179 -221 224 -121 57 -203 73
-398 77 -96 1 -196 -1 -222 -6z"/>
<path d="M2335 4040 c-150 -24 -283 -83 -386 -171 -91 -79 -151 -170 -191
-289 -30 -90 -32 -105 -36 -280 -3 -160 -6 -188 -22 -205 -45 -51 -55 -86 -55
-200 0 -86 5 -125 22 -180 25 -78 96 -206 153 -275 20 -25 43 -63 50 -85 17
-54 60 -138 104 -205 l36 -55 -22 -17 c-31 -23 -304 -145 -665 -297 -185 -77
-336 -275 -427 -558 -55 -171 -82 -374 -56 -422 30 -57 405 -155 765 -200 309
-39 440 -46 890 -46 450 0 602 8 902 46 354 44 733 144 763 200 23 42 4 248
-35 394 -52 193 -122 318 -231 410 -71 60 -200 126 -679 347 -120 56 -241 117
-263 134 -2 1 18 31 43 66 48 64 133 230 155 303 7 22 24 54 39 70 172 194
235 513 126 633 l-33 37 -4 165 c-4 181 -14 219 -78 300 -16 21 -30 43 -30 50
0 7 -15 39 -32 73 -61 113 -204 205 -380 243 -87 19 -338 27 -423 14z m430
-174 c140 -35 247 -122 261 -213 5 -34 16 -55 39 -77 56 -53 59 -65 65 -283 6
-180 9 -205 26 -224 10 -12 29 -25 42 -30 18 -7 22 -16 22 -53 0 -66 -19 -143
-52 -213 -31 -66 -98 -161 -123 -175 -8 -5 -24 -41 -36 -81 -59 -199 -209
-396 -356 -469 -123 -60 -268 -49 -394 33 -106 68 -210 210 -255 349 -11 34
-39 81 -75 125 -93 114 -139 227 -139 339 0 58 2 62 37 92 l38 32 6 223 c5
194 9 232 27 282 71 194 197 306 390 348 111 24 368 21 477 -5z m-583 -1916
c24 -16 76 -42 114 -57 62 -24 82 -27 194 -27 139 -1 187 12 287 78 l51 34
124 -65 c67 -36 200 -100 293 -143 309 -141 521 -250 564 -291 104 -100 183
-301 206 -521 l7 -67 -98 -31 c-329 -103 -796 -153 -1424 -153 -634 0 -1094
49 -1420 154 l-101 32 6 51 c24 186 111 410 212 549 20 27 59 66 88 88 50 37
225 122 365 176 98 38 294 127 390 178 47 24 88 45 91 45 3 0 26 -13 51 -30z"/>
</g>
</svg>
