<svg xmlns="http://www.w3.org/2000/svg" xmlns:xlink="http://www.w3.org/1999/xlink" width="1536" zoomAndPan="magnify" viewBox="0 0 1152 647.999998" height="864" preserveAspectRatio="xMidYMid meet" version="1.0" transform="matrix(1, 0, 0, 1, 0, 0)"><defs fill="#000000"><clipPath id="9638fa79b4" fill="#000000"><path d="M 446.398438 357 L 705.898438 357 L 705.898438 435 L 446.398438 435 Z M 446.398438 357 " clip-rule="nonzero" fill="#000000"/></clipPath></defs><path fill="#000000" d="M 503.164062 353.867188 C 503.960938 353.867188 504.757812 353.828125 505.550781 353.75 C 506.34375 353.671875 507.128906 353.554688 507.910156 353.402344 C 508.691406 353.246094 509.464844 353.054688 510.226562 352.824219 C 510.988281 352.589844 511.738281 352.324219 512.476562 352.019531 C 513.210938 351.714844 513.929688 351.375 514.632812 351 C 515.335938 350.625 516.019531 350.21875 516.679688 349.777344 C 517.34375 349.332031 517.984375 348.859375 518.597656 348.355469 C 519.214844 347.851562 519.804688 347.316406 520.367188 346.753906 C 520.929688 346.191406 521.464844 345.605469 521.972656 344.988281 C 522.476562 344.375 522.949219 343.738281 523.394531 343.074219 C 523.835938 342.414062 524.246094 341.734375 524.621094 341.03125 C 524.996094 340.332031 525.335938 339.613281 525.640625 338.878906 C 525.945312 338.144531 526.214844 337.394531 526.445312 336.632812 C 526.675781 335.871094 526.871094 335.101562 527.027344 334.324219 C 527.183594 333.542969 527.296875 332.757812 527.375 331.964844 C 527.453125 331.171875 527.492188 330.378906 527.492188 329.585938 C 527.492188 328.789062 527.453125 327.996094 527.375 327.203125 C 527.296875 326.414062 527.183594 325.628906 527.027344 324.847656 C 526.871094 324.066406 526.675781 323.296875 526.445312 322.535156 C 526.214844 321.773438 525.945312 321.027344 525.640625 320.292969 C 525.335938 319.558594 524.996094 318.839844 524.621094 318.136719 C 524.246094 317.4375 523.835938 316.753906 523.394531 316.09375 C 522.949219 315.433594 522.476562 314.792969 521.972656 314.179688 C 521.464844 313.566406 520.929688 312.976562 520.367188 312.414062 C 519.804688 311.851562 519.214844 311.320312 518.597656 310.8125 C 517.984375 310.308594 517.34375 309.835938 516.679688 309.394531 C 516.019531 308.953125 515.335938 308.542969 514.632812 308.167969 C 513.929688 307.792969 513.210938 307.453125 512.476562 307.152344 C 511.738281 306.847656 510.988281 306.578125 510.226562 306.347656 C 509.464844 306.117188 508.691406 305.925781 507.910156 305.769531 C 507.128906 305.613281 506.34375 305.496094 505.550781 305.417969 C 504.757812 305.339844 503.960938 305.300781 503.164062 305.300781 C 502.367188 305.300781 501.574219 305.339844 500.78125 305.417969 C 499.988281 305.496094 499.199219 305.613281 498.417969 305.769531 C 497.636719 305.925781 496.867188 306.117188 496.105469 306.347656 C 495.339844 306.578125 494.589844 306.847656 493.855469 307.152344 C 493.121094 307.453125 492.398438 307.792969 491.699219 308.167969 C 490.996094 308.542969 490.3125 308.953125 489.648438 309.394531 C 488.988281 309.835938 488.347656 310.308594 487.730469 310.8125 C 487.117188 311.320312 486.527344 311.851562 485.964844 312.414062 C 485.398438 312.976562 484.863281 313.566406 484.359375 314.179688 C 483.855469 314.792969 483.378906 315.433594 482.9375 316.09375 C 482.496094 316.753906 482.085938 317.4375 481.710938 318.136719 C 481.335938 318.839844 480.996094 319.558594 480.6875 320.292969 C 480.382812 321.027344 480.117188 321.773438 479.886719 322.535156 C 479.652344 323.296875 479.460938 324.066406 479.304688 324.847656 C 479.148438 325.628906 479.03125 326.414062 478.953125 327.203125 C 478.875 327.996094 478.835938 328.789062 478.835938 329.585938 C 478.835938 330.378906 478.875 331.171875 478.953125 331.964844 C 479.03125 332.757812 479.148438 333.542969 479.304688 334.324219 C 479.460938 335.101562 479.652344 335.871094 479.886719 336.632812 C 480.117188 337.394531 480.382812 338.144531 480.6875 338.878906 C 480.996094 339.613281 481.335938 340.332031 481.710938 341.03125 C 482.085938 341.734375 482.496094 342.414062 482.9375 343.074219 C 483.378906 343.738281 483.855469 344.375 484.359375 344.988281 C 484.863281 345.605469 485.398438 346.191406 485.964844 346.753906 C 486.527344 347.316406 487.117188 347.851562 487.730469 348.355469 C 488.347656 348.859375 488.988281 349.332031 489.648438 349.777344 C 490.3125 350.21875 490.996094 350.625 491.699219 351 C 492.398438 351.375 493.121094 351.714844 493.855469 352.019531 C 494.589844 352.324219 495.339844 352.589844 496.101562 352.824219 C 496.867188 353.054688 497.636719 353.246094 498.417969 353.402344 C 499.199219 353.554688 499.988281 353.671875 500.78125 353.75 C 501.574219 353.828125 502.367188 353.867188 503.164062 353.867188 Z M 503.164062 313.394531 C 503.695312 313.394531 504.226562 313.421875 504.753906 313.472656 C 505.285156 313.527344 505.808594 313.605469 506.328125 313.707031 C 506.851562 313.8125 507.367188 313.941406 507.875 314.09375 C 508.382812 314.246094 508.882812 314.425781 509.371094 314.628906 C 509.863281 314.832031 510.34375 315.058594 510.8125 315.308594 C 511.28125 315.558594 511.734375 315.832031 512.175781 316.125 C 512.617188 316.417969 513.042969 316.734375 513.453125 317.070312 C 513.867188 317.40625 514.257812 317.761719 514.632812 318.136719 C 515.007812 318.511719 515.367188 318.90625 515.703125 319.316406 C 516.039062 319.726562 516.355469 320.148438 516.652344 320.589844 C 516.945312 321.03125 517.21875 321.484375 517.46875 321.953125 C 517.71875 322.421875 517.945312 322.898438 518.148438 323.390625 C 518.351562 323.878906 518.53125 324.378906 518.6875 324.886719 C 518.839844 325.394531 518.96875 325.90625 519.074219 326.425781 C 519.175781 326.945312 519.253906 327.46875 519.304688 328 C 519.359375 328.527344 519.382812 329.054688 519.382812 329.585938 C 519.382812 330.117188 519.359375 330.644531 519.304688 331.171875 C 519.253906 331.699219 519.175781 332.222656 519.074219 332.742188 C 518.96875 333.261719 518.839844 333.777344 518.6875 334.285156 C 518.53125 334.792969 518.351562 335.289062 518.148438 335.78125 C 517.945312 336.269531 517.71875 336.75 517.46875 337.214844 C 517.21875 337.683594 516.945312 338.136719 516.652344 338.578125 C 516.355469 339.019531 516.039062 339.445312 515.703125 339.855469 C 515.367188 340.265625 515.007812 340.65625 514.632812 341.03125 C 514.257812 341.40625 513.867188 341.761719 513.453125 342.097656 C 513.042969 342.433594 512.617188 342.75 512.175781 343.046875 C 511.734375 343.339844 511.28125 343.613281 510.8125 343.863281 C 510.34375 344.113281 509.863281 344.339844 509.371094 344.542969 C 508.882812 344.746094 508.382812 344.921875 507.875 345.078125 C 507.367188 345.230469 506.851562 345.359375 506.328125 345.460938 C 505.808594 345.566406 505.285156 345.644531 504.753906 345.695312 C 504.226562 345.746094 503.695312 345.773438 503.164062 345.773438 C 502.632812 345.773438 502.105469 345.746094 501.574219 345.695312 C 501.046875 345.644531 500.523438 345.566406 500 345.460938 C 499.480469 345.359375 498.964844 345.230469 498.457031 345.078125 C 497.949219 344.921875 497.449219 344.746094 496.957031 344.542969 C 496.46875 344.339844 495.988281 344.113281 495.519531 343.863281 C 495.050781 343.613281 494.597656 343.339844 494.15625 343.046875 C 493.714844 342.75 493.289062 342.433594 492.875 342.097656 C 492.464844 341.761719 492.074219 341.40625 491.695312 341.03125 C 491.320312 340.65625 490.964844 340.265625 490.628906 339.855469 C 490.292969 339.445312 489.976562 339.019531 489.679688 338.578125 C 489.386719 338.136719 489.113281 337.683594 488.863281 337.214844 C 488.613281 336.75 488.382812 336.269531 488.179688 335.78125 C 487.976562 335.289062 487.800781 334.792969 487.644531 334.285156 C 487.492188 333.777344 487.363281 333.261719 487.257812 332.742188 C 487.15625 332.222656 487.078125 331.699219 487.023438 331.171875 C 486.972656 330.644531 486.945312 330.117188 486.945312 329.585938 C 486.945312 329.054688 486.972656 328.527344 487.023438 328 C 487.078125 327.46875 487.15625 326.945312 487.257812 326.425781 C 487.363281 325.90625 487.492188 325.394531 487.644531 324.886719 C 487.800781 324.378906 487.976562 323.878906 488.179688 323.390625 C 488.382812 322.898438 488.613281 322.421875 488.863281 321.953125 C 489.113281 321.484375 489.386719 321.03125 489.679688 320.589844 C 489.976562 320.148438 490.292969 319.726562 490.628906 319.316406 C 490.964844 318.90625 491.320312 318.511719 491.695312 318.136719 C 492.074219 317.761719 492.464844 317.40625 492.875 317.070312 C 493.289062 316.734375 493.714844 316.417969 494.15625 316.125 C 494.597656 315.832031 495.050781 315.558594 495.519531 315.308594 C 495.988281 315.058594 496.46875 314.832031 496.957031 314.628906 C 497.449219 314.425781 497.949219 314.246094 498.457031 314.09375 C 498.964844 313.941406 499.480469 313.8125 500 313.707031 C 500.523438 313.605469 501.046875 313.527344 501.574219 313.472656 C 502.105469 313.421875 502.632812 313.394531 503.164062 313.394531 Z M 503.164062 313.394531 " fill-opacity="1" fill-rule="nonzero"/><path fill="#000000" d="M 649.132812 353.867188 C 649.929688 353.867188 650.726562 353.828125 651.519531 353.75 C 652.3125 353.671875 653.097656 353.554688 653.878906 353.402344 C 654.660156 353.246094 655.433594 353.054688 656.195312 352.824219 C 656.957031 352.589844 657.707031 352.324219 658.445312 352.019531 C 659.179688 351.714844 659.898438 351.375 660.601562 351 C 661.304688 350.625 661.988281 350.21875 662.648438 349.777344 C 663.3125 349.332031 663.953125 348.859375 664.566406 348.355469 C 665.183594 347.851562 665.773438 347.316406 666.335938 346.753906 C 666.898438 346.191406 667.433594 345.605469 667.941406 344.988281 C 668.445312 344.375 668.917969 343.738281 669.363281 343.074219 C 669.804688 342.414062 670.214844 341.734375 670.589844 341.03125 C 670.964844 340.332031 671.304688 339.613281 671.609375 338.878906 C 671.914062 338.144531 672.183594 337.394531 672.414062 336.632812 C 672.644531 335.871094 672.839844 335.101562 672.996094 334.324219 C 673.152344 333.542969 673.265625 332.757812 673.34375 331.964844 C 673.421875 331.171875 673.460938 330.378906 673.460938 329.585938 C 673.460938 328.789062 673.421875 327.996094 673.34375 327.203125 C 673.265625 326.414062 673.152344 325.628906 672.996094 324.847656 C 672.839844 324.066406 672.644531 323.296875 672.414062 322.535156 C 672.183594 321.773438 671.914062 321.027344 671.609375 320.292969 C 671.304688 319.558594 670.964844 318.839844 670.589844 318.136719 C 670.214844 317.4375 669.804688 316.753906 669.363281 316.09375 C 668.917969 315.433594 668.445312 314.792969 667.941406 314.179688 C 667.433594 313.566406 666.898438 312.976562 666.335938 312.414062 C 665.773438 311.851562 665.183594 311.320312 664.566406 310.8125 C 663.953125 310.308594 663.3125 309.835938 662.648438 309.394531 C 661.988281 308.953125 661.304688 308.542969 660.601562 308.167969 C 659.898438 307.792969 659.179688 307.453125 658.445312 307.152344 C 657.707031 306.847656 656.957031 306.578125 656.195312 306.347656 C 655.433594 306.117188 654.660156 305.925781 653.878906 305.769531 C 653.097656 305.613281 652.3125 305.496094 651.519531 305.417969 C 650.726562 305.339844 649.929688 305.300781 649.132812 305.300781 C 648.335938 305.300781 647.542969 305.339844 646.75 305.417969 C 645.957031 305.496094 645.167969 305.613281 644.386719 305.769531 C 643.605469 305.925781 642.835938 306.117188 642.070312 306.347656 C 641.308594 306.578125 640.558594 306.847656 639.824219 307.152344 C 639.089844 307.453125 638.367188 307.792969 637.667969 308.167969 C 636.964844 308.542969 636.28125 308.953125 635.617188 309.394531 C 634.957031 309.835938 634.316406 310.308594 633.699219 310.8125 C 633.085938 311.320312 632.496094 311.851562 631.933594 312.414062 C 631.367188 312.976562 630.832031 313.566406 630.328125 314.179688 C 629.824219 314.792969 629.347656 315.433594 628.90625 316.09375 C 628.464844 316.753906 628.054688 317.4375 627.679688 318.136719 C 627.304688 318.839844 626.964844 319.558594 626.65625 320.292969 C 626.351562 321.027344 626.085938 321.773438 625.855469 322.535156 C 625.621094 323.296875 625.429688 324.066406 625.273438 324.847656 C 625.117188 325.628906 625 326.414062 624.921875 327.203125 C 624.84375 327.996094 624.804688 328.789062 624.804688 329.585938 C 624.804688 330.378906 624.84375 331.171875 624.921875 331.964844 C 625 332.757812 625.117188 333.542969 625.273438 334.324219 C 625.429688 335.101562 625.621094 335.871094 625.855469 336.632812 C 626.085938 337.394531 626.351562 338.144531 626.65625 338.878906 C 626.964844 339.613281 627.304688 340.332031 627.679688 341.03125 C 628.054688 341.734375 628.464844 342.414062 628.90625 343.074219 C 629.347656 343.738281 629.824219 344.375 630.328125 344.988281 C 630.832031 345.605469 631.367188 346.191406 631.933594 346.753906 C 632.496094 347.316406 633.085938 347.851562 633.699219 348.355469 C 634.316406 348.859375 634.957031 349.332031 635.617188 349.777344 C 636.28125 350.21875 636.964844 350.625 637.667969 351 C 638.367188 351.375 639.089844 351.714844 639.824219 352.019531 C 640.558594 352.324219 641.308594 352.589844 642.074219 352.824219 C 642.835938 353.054688 643.605469 353.246094 644.386719 353.402344 C 645.167969 353.554688 645.957031 353.671875 646.75 353.75 C 647.542969 353.828125 648.335938 353.867188 649.132812 353.867188 Z M 649.132812 313.394531 C 649.664062 313.394531 650.195312 313.421875 650.722656 313.472656 C 651.253906 313.527344 651.777344 313.605469 652.296875 313.707031 C 652.820312 313.8125 653.335938 313.941406 653.84375 314.09375 C 654.351562 314.246094 654.851562 314.425781 655.339844 314.628906 C 655.832031 314.832031 656.3125 315.058594 656.78125 315.308594 C 657.25 315.558594 657.703125 315.832031 658.144531 316.125 C 658.585938 316.417969 659.011719 316.734375 659.421875 317.070312 C 659.835938 317.40625 660.226562 317.761719 660.601562 318.136719 C 660.976562 318.511719 661.335938 318.90625 661.671875 319.316406 C 662.007812 319.726562 662.324219 320.148438 662.621094 320.589844 C 662.914062 321.03125 663.1875 321.484375 663.4375 321.953125 C 663.6875 322.421875 663.914062 322.898438 664.117188 323.390625 C 664.320312 323.878906 664.5 324.378906 664.65625 324.886719 C 664.808594 325.394531 664.9375 325.90625 665.042969 326.425781 C 665.144531 326.945312 665.222656 327.46875 665.273438 328 C 665.328125 328.527344 665.351562 329.054688 665.351562 329.585938 C 665.351562 330.117188 665.328125 330.644531 665.273438 331.171875 C 665.222656 331.699219 665.144531 332.222656 665.042969 332.742188 C 664.9375 333.261719 664.808594 333.777344 664.65625 334.285156 C 664.5 334.792969 664.320312 335.289062 664.117188 335.78125 C 663.914062 336.269531 663.6875 336.75 663.4375 337.214844 C 663.1875 337.683594 662.914062 338.136719 662.621094 338.578125 C 662.324219 339.019531 662.007812 339.445312 661.671875 339.855469 C 661.335938 340.265625 660.976562 340.65625 660.601562 341.03125 C 660.226562 341.40625 659.835938 341.761719 659.421875 342.097656 C 659.011719 342.433594 658.585938 342.75 658.144531 343.046875 C 657.703125 343.339844 657.25 343.613281 656.78125 343.863281 C 656.3125 344.113281 655.832031 344.339844 655.339844 344.542969 C 654.851562 344.746094 654.351562 344.921875 653.84375 345.078125 C 653.335938 345.230469 652.820312 345.359375 652.296875 345.460938 C 651.777344 345.566406 651.253906 345.644531 650.722656 345.695312 C 650.195312 345.746094 649.664062 345.773438 649.132812 345.773438 C 648.601562 345.773438 648.074219 345.746094 647.542969 345.695312 C 647.015625 345.644531 646.492188 345.566406 645.96875 345.460938 C 645.449219 345.359375 644.933594 345.230469 644.425781 345.078125 C 643.917969 344.921875 643.417969 344.746094 642.925781 344.542969 C 642.4375 344.339844 641.957031 344.113281 641.488281 343.863281 C 641.019531 343.613281 640.566406 343.339844 640.125 343.046875 C 639.683594 342.75 639.257812 342.433594 638.84375 342.097656 C 638.433594 341.761719 638.042969 341.40625 637.664062 341.03125 C 637.289062 340.65625 636.933594 340.265625 636.597656 339.855469 C 636.261719 339.445312 635.945312 339.019531 635.648438 338.578125 C 635.355469 338.136719 635.082031 337.683594 634.832031 337.214844 C 634.582031 336.75 634.351562 336.269531 634.148438 335.78125 C 633.945312 335.289062 633.769531 334.792969 633.613281 334.285156 C 633.460938 333.777344 633.332031 333.261719 633.226562 332.742188 C 633.125 332.222656 633.046875 331.699219 632.992188 331.171875 C 632.941406 330.644531 632.914062 330.117188 632.914062 329.585938 C 632.914062 329.054688 632.941406 328.527344 632.992188 328 C 633.046875 327.46875 633.125 326.945312 633.226562 326.425781 C 633.332031 325.90625 633.460938 325.394531 633.613281 324.886719 C 633.769531 324.378906 633.945312 323.878906 634.148438 323.390625 C 634.351562 322.898438 634.582031 322.421875 634.832031 321.953125 C 635.082031 321.484375 635.355469 321.03125 635.648438 320.589844 C 635.945312 320.148438 636.261719 319.726562 636.597656 319.316406 C 636.933594 318.90625 637.289062 318.511719 637.664062 318.136719 C 638.042969 317.761719 638.433594 317.40625 638.84375 317.070312 C 639.257812 316.734375 639.683594 316.417969 640.125 316.125 C 640.566406 315.832031 641.019531 315.558594 641.488281 315.308594 C 641.957031 315.058594 642.4375 314.832031 642.925781 314.628906 C 643.417969 314.425781 643.917969 314.246094 644.425781 314.09375 C 644.933594 313.941406 645.449219 313.8125 645.96875 313.707031 C 646.492188 313.605469 647.015625 313.527344 647.542969 313.472656 C 648.074219 313.421875 648.601562 313.394531 649.132812 313.394531 Z M 649.132812 313.394531 " fill-opacity="1" fill-rule="nonzero"/><g clip-path="url(#9638fa79b4)"><path fill="#000000" d="M 701.84375 426.71875 L 690.898438 426.71875 C 691.800781 425.558594 692.492188 424.285156 692.980469 422.902344 C 693.464844 421.515625 693.71875 420.089844 693.734375 418.621094 L 693.734375 382.199219 C 693.734375 368.800781 681.003906 357.914062 665.351562 357.914062 L 632.914062 357.914062 C 618.886719 357.914062 607.207031 366.699219 604.980469 378.152344 L 588.3125 378.152344 C 587.691406 378.148438 587.097656 378.28125 586.535156 378.550781 C 585.972656 378.820312 585.496094 379.199219 585.109375 379.6875 C 584.726562 380.183594 584.46875 380.734375 584.34375 381.34375 C 584.214844 381.957031 584.226562 382.5625 584.382812 383.167969 L 595.289062 426.71875 L 557.011719 426.71875 L 568.039062 383.167969 C 568.195312 382.5625 568.207031 381.957031 568.078125 381.34375 C 567.949219 380.734375 567.695312 380.183594 567.3125 379.6875 C 566.910156 379.183594 566.417969 378.792969 565.832031 378.523438 C 565.246094 378.253906 564.632812 378.128906 563.984375 378.152344 L 547.320312 378.152344 C 545.089844 366.699219 533.414062 357.914062 519.382812 357.914062 L 486.945312 357.914062 C 471.296875 357.914062 458.5625 368.800781 458.5625 382.199219 L 458.5625 418.621094 C 458.582031 420.089844 458.835938 421.515625 459.320312 422.902344 C 459.804688 424.285156 460.5 425.558594 461.402344 426.71875 L 450.453125 426.71875 C 450.1875 426.71875 449.925781 426.742188 449.664062 426.792969 C 449.402344 426.847656 449.148438 426.921875 448.902344 427.023438 C 448.65625 427.125 448.421875 427.25 448.203125 427.398438 C 447.980469 427.546875 447.777344 427.714844 447.585938 427.902344 C 447.398438 428.089844 447.230469 428.292969 447.082031 428.515625 C 446.933594 428.738281 446.808594 428.96875 446.707031 429.214844 C 446.605469 429.460938 446.53125 429.714844 446.476562 429.972656 C 446.425781 430.234375 446.398438 430.5 446.398438 430.765625 C 446.398438 431.03125 446.425781 431.292969 446.476562 431.554688 C 446.53125 431.8125 446.605469 432.066406 446.707031 432.3125 C 446.808594 432.558594 446.933594 432.792969 447.082031 433.011719 C 447.230469 433.234375 447.398438 433.4375 447.585938 433.625 C 447.777344 433.8125 447.980469 433.980469 448.203125 434.128906 C 448.421875 434.277344 448.65625 434.402344 448.902344 434.503906 C 449.148438 434.605469 449.402344 434.679688 449.664062 434.734375 C 449.925781 434.785156 450.1875 434.8125 450.453125 434.8125 L 701.84375 434.8125 C 702.113281 434.8125 702.375 434.785156 702.636719 434.734375 C 702.898438 434.679688 703.152344 434.605469 703.398438 434.503906 C 703.644531 434.402344 703.875 434.277344 704.097656 434.128906 C 704.320312 433.980469 704.523438 433.8125 704.710938 433.625 C 704.902344 433.4375 705.070312 433.234375 705.214844 433.011719 C 705.363281 432.792969 705.488281 432.558594 705.589844 432.3125 C 705.691406 432.066406 705.769531 431.8125 705.820312 431.554688 C 705.875 431.292969 705.898438 431.03125 705.898438 430.765625 C 705.898438 430.5 705.875 430.234375 705.820312 429.972656 C 705.769531 429.714844 705.691406 429.460938 705.589844 429.214844 C 705.488281 428.96875 705.363281 428.738281 705.214844 428.515625 C 705.070312 428.292969 704.902344 428.089844 704.710938 427.902344 C 704.523438 427.714844 704.320312 427.546875 704.097656 427.398438 C 703.875 427.25 703.644531 427.125 703.398438 427.023438 C 703.152344 426.921875 702.898438 426.847656 702.636719 426.792969 C 702.375 426.742188 702.113281 426.71875 701.84375 426.71875 Z M 515.328125 426.71875 L 478.835938 426.71875 C 472.226562 426.71875 466.671875 422.992188 466.671875 418.621094 L 466.671875 382.199219 C 466.671875 373.253906 475.757812 366.007812 486.945312 366.007812 L 519.382812 366.007812 C 520.40625 365.949219 521.429688 365.96875 522.449219 366.066406 C 523.46875 366.164062 524.472656 366.339844 525.46875 366.589844 C 526.460938 366.84375 527.425781 367.167969 528.371094 367.570312 C 529.3125 367.972656 530.21875 368.441406 531.085938 368.984375 C 531.957031 369.523438 532.78125 370.125 533.558594 370.792969 C 534.332031 371.460938 535.054688 372.183594 535.71875 372.960938 C 536.382812 373.738281 536.984375 374.5625 537.523438 375.433594 C 538.0625 376.300781 538.53125 377.207031 538.929688 378.152344 L 507.21875 378.152344 C 506.757812 378.136719 506.304688 378.203125 505.863281 378.34375 C 505.421875 378.484375 505.019531 378.695312 504.648438 378.972656 C 504.28125 379.253906 503.96875 379.585938 503.714844 379.972656 C 503.460938 380.359375 503.277344 380.777344 503.164062 381.226562 L 495.949219 410.527344 L 486.945312 410.527344 L 486.945312 398.386719 C 486.945312 398.121094 486.921875 397.859375 486.867188 397.597656 C 486.816406 397.335938 486.738281 397.082031 486.636719 396.839844 C 486.535156 396.59375 486.410156 396.359375 486.261719 396.136719 C 486.117188 395.917969 485.949219 395.710938 485.757812 395.523438 C 485.570312 395.335938 485.367188 395.167969 485.144531 395.023438 C 484.921875 394.875 484.691406 394.75 484.445312 394.648438 C 484.199219 394.546875 483.945312 394.46875 483.683594 394.417969 C 483.421875 394.367188 483.160156 394.339844 482.890625 394.339844 C 482.625 394.339844 482.363281 394.367188 482.101562 394.417969 C 481.839844 394.46875 481.585938 394.546875 481.339844 394.648438 C 481.09375 394.75 480.859375 394.875 480.640625 395.023438 C 480.417969 395.167969 480.214844 395.335938 480.023438 395.523438 C 479.835938 395.710938 479.667969 395.917969 479.519531 396.136719 C 479.371094 396.359375 479.246094 396.59375 479.144531 396.839844 C 479.042969 397.082031 478.96875 397.335938 478.914062 397.597656 C 478.863281 397.859375 478.835938 398.121094 478.835938 398.386719 L 478.835938 414.574219 C 478.835938 414.839844 478.863281 415.105469 478.914062 415.363281 C 478.96875 415.625 479.042969 415.878906 479.144531 416.125 C 479.246094 416.371094 479.371094 416.601562 479.519531 416.824219 C 479.667969 417.042969 479.835938 417.25 480.023438 417.4375 C 480.214844 417.625 480.417969 417.792969 480.640625 417.941406 C 480.859375 418.089844 481.09375 418.210938 481.339844 418.316406 C 481.585938 418.417969 481.839844 418.492188 482.101562 418.542969 C 482.363281 418.597656 482.625 418.621094 482.890625 418.621094 L 526.804688 418.621094 C 526.597656 419.210938 526.34375 419.78125 526.046875 420.328125 C 525.75 420.878906 525.414062 421.402344 525.035156 421.902344 C 524.660156 422.398438 524.246094 422.863281 523.796875 423.300781 C 523.347656 423.734375 522.867188 424.128906 522.355469 424.492188 C 521.84375 424.851562 521.308594 425.171875 520.75 425.449219 C 520.191406 425.726562 519.613281 425.960938 519.015625 426.148438 C 518.421875 426.335938 517.8125 426.480469 517.195312 426.574219 C 516.578125 426.667969 515.953125 426.71875 515.328125 426.71875 Z M 548.660156 426.71875 L 531.546875 426.71875 C 532.875 424.972656 533.886719 423.058594 534.578125 420.980469 C 535.273438 418.902344 535.613281 416.765625 535.601562 414.574219 C 535.601562 414.308594 535.578125 414.046875 535.523438 413.785156 C 535.472656 413.523438 535.394531 413.273438 535.292969 413.027344 C 535.191406 412.78125 535.066406 412.546875 534.917969 412.328125 C 534.773438 412.105469 534.605469 411.902344 534.414062 411.714844 C 534.226562 411.527344 534.023438 411.359375 533.800781 411.210938 C 533.578125 411.0625 533.347656 410.9375 533.101562 410.835938 C 532.855469 410.734375 532.601562 410.65625 532.339844 410.605469 C 532.078125 410.554688 531.816406 410.527344 531.546875 410.527344 L 504.300781 410.527344 L 510.382812 386.246094 L 558.796875 386.246094 Z M 603.640625 426.71875 L 593.503906 386.246094 L 641.917969 386.246094 L 648 410.527344 L 620.75 410.527344 C 620.484375 410.527344 620.222656 410.554688 619.960938 410.605469 C 619.699219 410.65625 619.445312 410.734375 619.199219 410.835938 C 618.953125 410.9375 618.71875 411.0625 618.5 411.210938 C 618.277344 411.359375 618.074219 411.527344 617.882812 411.714844 C 617.695312 411.902344 617.527344 412.105469 617.378906 412.328125 C 617.230469 412.546875 617.105469 412.78125 617.003906 413.027344 C 616.902344 413.273438 616.828125 413.523438 616.773438 413.785156 C 616.722656 414.046875 616.695312 414.308594 616.695312 414.574219 C 616.683594 416.765625 617.027344 418.902344 617.71875 420.980469 C 618.414062 423.058594 619.425781 424.972656 620.75 426.71875 Z M 685.625 418.621094 C 685.625 422.992188 680.070312 426.71875 673.460938 426.71875 L 636.96875 426.71875 C 636.34375 426.71875 635.722656 426.667969 635.105469 426.574219 C 634.488281 426.480469 633.878906 426.335938 633.285156 426.148438 C 632.6875 425.960938 632.109375 425.726562 631.550781 425.449219 C 630.988281 425.171875 630.453125 424.851562 629.945312 424.492188 C 629.433594 424.128906 628.953125 423.734375 628.503906 423.300781 C 628.054688 422.863281 627.640625 422.398438 627.261719 421.902344 C 626.886719 421.402344 626.550781 420.878906 626.253906 420.328125 C 625.957031 419.78125 625.703125 419.210938 625.496094 418.621094 L 669.40625 418.621094 C 669.675781 418.621094 669.9375 418.597656 670.199219 418.542969 C 670.460938 418.492188 670.714844 418.417969 670.960938 418.3125 C 671.207031 418.210938 671.4375 418.089844 671.660156 417.941406 C 671.882812 417.792969 672.085938 417.625 672.273438 417.4375 C 672.464844 417.25 672.632812 417.042969 672.777344 416.824219 C 672.925781 416.601562 673.050781 416.371094 673.152344 416.125 C 673.253906 415.878906 673.332031 415.625 673.382812 415.363281 C 673.4375 415.105469 673.460938 414.839844 673.460938 414.574219 L 673.460938 398.386719 C 673.460938 398.121094 673.4375 397.859375 673.382812 397.597656 C 673.332031 397.335938 673.253906 397.082031 673.152344 396.839844 C 673.050781 396.59375 672.925781 396.359375 672.777344 396.136719 C 672.632812 395.917969 672.464844 395.710938 672.273438 395.523438 C 672.085938 395.335938 671.882812 395.167969 671.660156 395.023438 C 671.4375 394.875 671.207031 394.75 670.960938 394.648438 C 670.714844 394.546875 670.460938 394.46875 670.199219 394.417969 C 669.9375 394.367188 669.675781 394.339844 669.40625 394.339844 C 669.140625 394.339844 668.878906 394.367188 668.617188 394.417969 C 668.355469 394.46875 668.101562 394.546875 667.855469 394.648438 C 667.609375 394.75 667.375 394.875 667.15625 395.023438 C 666.933594 395.167969 666.730469 395.335938 666.539062 395.523438 C 666.351562 395.710938 666.183594 395.917969 666.035156 396.136719 C 665.886719 396.359375 665.761719 396.59375 665.660156 396.839844 C 665.558594 397.082031 665.484375 397.335938 665.429688 397.597656 C 665.378906 397.859375 665.351562 398.121094 665.351562 398.386719 L 665.351562 410.527344 L 656.351562 410.527344 L 649.132812 381.226562 C 649.023438 380.777344 648.839844 380.359375 648.585938 379.972656 C 648.332031 379.585938 648.019531 379.253906 647.652344 378.972656 C 647.28125 378.695312 646.878906 378.484375 646.4375 378.34375 C 645.996094 378.203125 645.542969 378.136719 645.078125 378.152344 L 613.371094 378.152344 C 613.769531 377.207031 614.238281 376.300781 614.777344 375.433594 C 615.3125 374.5625 615.914062 373.738281 616.582031 372.960938 C 617.246094 372.183594 617.964844 371.460938 618.742188 370.792969 C 619.519531 370.125 620.34375 369.523438 621.210938 368.984375 C 622.082031 368.441406 622.988281 367.972656 623.929688 367.570312 C 624.871094 367.167969 625.839844 366.84375 626.832031 366.589844 C 627.824219 366.339844 628.832031 366.164062 629.851562 366.066406 C 630.871094 365.96875 631.894531 365.949219 632.914062 366.007812 L 665.351562 366.007812 C 676.542969 366.007812 685.625 373.253906 685.625 382.199219 Z M 685.625 418.621094 " fill-opacity="1" fill-rule="nonzero"/></g><path fill="#000000" d="M 630.929688 260.785156 C 630.929688 259.589844 630.871094 258.398438 630.753906 257.214844 C 630.636719 256.027344 630.460938 254.847656 630.226562 253.675781 C 629.996094 252.507812 629.703125 251.351562 629.359375 250.210938 C 629.011719 249.066406 628.609375 247.945312 628.152344 246.84375 C 627.695312 245.742188 627.183594 244.664062 626.621094 243.613281 C 626.054688 242.5625 625.441406 241.539062 624.777344 240.546875 C 624.113281 239.554688 623.402344 238.597656 622.644531 237.675781 C 621.886719 236.753906 621.085938 235.871094 620.242188 235.027344 C 619.394531 234.183594 618.511719 233.382812 617.585938 232.625 C 616.664062 231.871094 615.703125 231.160156 614.710938 230.496094 C 613.71875 229.835938 612.691406 229.222656 611.640625 228.660156 C 610.585938 228.097656 609.503906 227.589844 608.402344 227.132812 C 607.296875 226.675781 606.171875 226.273438 605.03125 225.925781 C 603.886719 225.582031 602.726562 225.292969 601.554688 225.058594 C 600.382812 224.824219 599.203125 224.652344 598.011719 224.535156 C 596.824219 224.417969 595.632812 224.359375 594.4375 224.359375 C 590.507812 224.359375 586.679688 224.992188 582.960938 226.261719 C 582.035156 225.355469 581.0625 224.5 580.046875 223.699219 C 579.027344 222.894531 577.972656 222.148438 576.875 221.460938 C 575.777344 220.769531 574.644531 220.140625 573.480469 219.570312 C 572.316406 219 571.125 218.492188 569.90625 218.050781 C 568.6875 217.609375 567.449219 217.230469 566.191406 216.921875 C 564.929688 216.609375 563.660156 216.367188 562.375 216.191406 C 561.089844 216.015625 559.800781 215.90625 558.503906 215.867188 C 557.207031 215.832031 555.914062 215.859375 554.617188 215.960938 C 553.324219 216.058594 552.042969 216.226562 550.765625 216.464844 C 549.492188 216.699219 548.234375 217.003906 546.988281 217.371094 C 545.746094 217.742188 544.527344 218.175781 543.332031 218.675781 C 542.136719 219.175781 540.96875 219.738281 539.832031 220.363281 C 538.695312 220.988281 537.597656 221.667969 536.53125 222.410156 C 535.46875 223.152344 534.449219 223.945312 533.46875 224.796875 C 532.492188 225.644531 531.5625 226.542969 530.679688 227.492188 C 529.796875 228.441406 528.96875 229.433594 528.191406 230.472656 C 527.414062 231.507812 526.695312 232.582031 526.035156 233.695312 C 525.371094 234.808594 524.773438 235.957031 524.234375 237.132812 C 523.695312 238.308594 523.21875 239.511719 522.808594 240.742188 C 522.398438 241.96875 522.054688 243.214844 521.773438 244.480469 C 521.496094 245.742188 521.289062 247.019531 521.148438 248.304688 C 521.003906 249.59375 520.933594 250.882812 520.929688 252.175781 C 520.925781 253.472656 520.992188 254.761719 521.125 256.050781 C 521.261719 257.339844 521.460938 258.613281 521.734375 259.878906 C 522.003906 261.148438 522.339844 262.394531 522.746094 263.625 C 523.148438 264.855469 523.617188 266.058594 524.148438 267.238281 C 524.683594 268.421875 525.277344 269.570312 525.933594 270.6875 C 526.589844 271.804688 527.300781 272.882812 528.070312 273.921875 C 528.84375 274.964844 529.667969 275.960938 530.542969 276.914062 C 531.421875 277.867188 532.347656 278.773438 533.320312 279.628906 C 534.292969 280.480469 535.308594 281.28125 536.371094 282.03125 C 537.429688 282.777344 538.523438 283.464844 539.65625 284.09375 L 537.875 296.640625 C 537.808594 297.027344 537.796875 297.414062 537.84375 297.800781 C 537.890625 298.191406 537.992188 298.5625 538.144531 298.921875 C 538.300781 299.28125 538.503906 299.609375 538.753906 299.910156 C 539.003906 300.210938 539.292969 300.472656 539.617188 300.6875 C 540.304688 301.148438 541.0625 301.378906 541.886719 301.375 C 542.609375 301.382812 543.285156 301.207031 543.914062 300.851562 L 565.566406 288.464844 C 566.941406 288.171875 568.292969 287.792969 569.621094 287.332031 C 572.042969 289.636719 574.730469 291.574219 577.683594 293.140625 C 580.636719 294.707031 583.75 295.847656 587.015625 296.558594 L 608.585938 308.824219 C 609.214844 309.179688 609.890625 309.355469 610.613281 309.347656 C 611.441406 309.351562 612.199219 309.121094 612.886719 308.660156 C 613.210938 308.445312 613.5 308.183594 613.75 307.882812 C 614 307.585938 614.203125 307.253906 614.355469 306.894531 C 614.511719 306.535156 614.613281 306.164062 614.660156 305.773438 C 614.703125 305.386719 614.695312 305 614.628906 304.613281 L 612.84375 292.066406 C 614.207031 291.273438 615.515625 290.390625 616.765625 289.425781 C 618.015625 288.460938 619.195312 287.421875 620.3125 286.304688 C 621.425781 285.183594 622.460938 284 623.421875 282.746094 C 624.382812 281.496094 625.253906 280.1875 626.046875 278.820312 C 626.835938 277.453125 627.53125 276.042969 628.136719 274.585938 C 628.746094 273.132812 629.253906 271.640625 629.664062 270.121094 C 630.078125 268.597656 630.390625 267.054688 630.601562 265.492188 C 630.8125 263.929688 630.921875 262.359375 630.929688 260.785156 Z M 563.214844 280.535156 C 562.777344 280.628906 562.359375 280.777344 561.957031 280.980469 L 546.914062 289.597656 L 547.765625 282.4375 C 547.808594 282.023438 547.785156 281.613281 547.703125 281.207031 C 547.617188 280.800781 547.472656 280.417969 547.269531 280.054688 C 547.066406 279.691406 546.816406 279.371094 546.511719 279.085938 C 546.210938 278.800781 545.871094 278.570312 545.496094 278.386719 C 544.996094 278.148438 544.5 277.890625 544.011719 277.621094 C 543.527344 277.351562 543.046875 277.070312 542.578125 276.769531 C 542.109375 276.472656 541.648438 276.160156 541.195312 275.835938 C 540.742188 275.511719 540.300781 275.171875 539.871094 274.820312 C 539.4375 274.472656 539.019531 274.109375 538.605469 273.730469 C 538.195312 273.355469 537.796875 272.96875 537.410156 272.570312 C 537.023438 272.171875 536.648438 271.761719 536.285156 271.339844 C 535.921875 270.917969 535.570312 270.484375 535.234375 270.042969 C 534.894531 269.601562 534.570312 269.152344 534.257812 268.691406 C 533.949219 268.230469 533.648438 267.761719 533.367188 267.28125 C 533.082031 266.804688 532.8125 266.316406 532.558594 265.824219 C 532.304688 265.328125 532.0625 264.828125 531.839844 264.320312 C 531.613281 263.8125 531.402344 263.296875 531.207031 262.777344 C 531.011719 262.253906 530.835938 261.730469 530.671875 261.199219 C 530.507812 260.667969 530.359375 260.132812 530.226562 259.589844 C 530.09375 259.050781 529.976562 258.507812 529.875 257.960938 C 529.777344 257.414062 529.691406 256.867188 529.625 256.3125 C 529.554688 255.761719 529.503906 255.210938 529.46875 254.65625 C 529.433594 254.101562 529.414062 253.542969 529.410156 252.988281 C 529.410156 252.433594 529.421875 251.878906 529.453125 251.324219 C 529.484375 250.765625 529.53125 250.214844 529.59375 249.660156 C 529.65625 249.109375 529.734375 248.558594 529.828125 248.011719 C 529.925781 247.464844 530.035156 246.917969 530.164062 246.378906 C 530.289062 245.835938 530.433594 245.300781 530.59375 244.769531 C 530.75 244.234375 530.925781 243.707031 531.117188 243.183594 C 531.304688 242.664062 531.511719 242.148438 531.730469 241.636719 C 531.953125 241.125 532.1875 240.621094 532.4375 240.125 C 532.6875 239.628906 532.953125 239.140625 533.230469 238.660156 C 533.511719 238.179688 533.804688 237.707031 534.109375 237.242188 C 534.417969 236.777344 534.738281 236.324219 535.070312 235.878906 C 535.40625 235.433594 535.753906 235 536.113281 234.574219 C 536.472656 234.148438 536.84375 233.738281 537.226562 233.332031 C 537.609375 232.929688 538.003906 232.539062 538.410156 232.160156 C 538.820312 231.78125 539.234375 231.414062 539.664062 231.058594 C 540.09375 230.703125 540.53125 230.359375 540.980469 230.03125 C 541.429688 229.703125 541.886719 229.386719 542.355469 229.085938 C 542.820312 228.78125 543.296875 228.492188 543.78125 228.21875 C 544.265625 227.945312 544.757812 227.683594 545.257812 227.4375 C 545.757812 227.195312 546.261719 226.964844 546.777344 226.746094 C 547.289062 226.53125 547.808594 226.332031 548.332031 226.144531 C 548.859375 225.960938 549.386719 225.789062 549.921875 225.636719 C 550.457031 225.484375 550.996094 225.34375 551.539062 225.222656 C 552.082031 225.097656 552.628906 224.992188 553.179688 224.902344 C 553.730469 224.8125 554.28125 224.738281 554.835938 224.679688 C 555.386719 224.621094 555.945312 224.582031 556.5 224.554688 C 557.054688 224.53125 557.613281 224.519531 558.167969 224.527344 C 558.726562 224.535156 559.28125 224.558594 559.835938 224.597656 C 560.394531 224.640625 560.945312 224.695312 561.5 224.769531 C 562.050781 224.839844 562.601562 224.929688 563.148438 225.035156 C 563.695312 225.140625 564.238281 225.257812 564.777344 225.394531 C 565.316406 225.53125 565.851562 225.6875 566.382812 225.855469 C 566.914062 226.023438 567.4375 226.207031 567.957031 226.40625 C 568.480469 226.605469 568.992188 226.816406 569.5 227.046875 C 570.007812 227.277344 570.507812 227.519531 571 227.777344 C 571.492188 228.039062 571.976562 228.308594 572.453125 228.597656 C 572.929688 228.882812 573.398438 229.183594 573.859375 229.5 C 574.316406 229.8125 574.765625 230.140625 575.207031 230.484375 C 575.644531 230.824219 576.074219 231.175781 576.496094 231.542969 C 576.914062 231.910156 577.320312 232.289062 577.71875 232.679688 C 578.113281 233.070312 578.5 233.46875 578.871094 233.882812 C 579.246094 234.296875 579.605469 234.71875 579.953125 235.152344 C 580.300781 235.585938 580.636719 236.03125 580.957031 236.484375 C 581.28125 236.9375 581.589844 237.398438 581.882812 237.871094 C 582.175781 238.34375 582.457031 238.824219 582.722656 239.3125 C 582.988281 239.800781 583.242188 240.296875 583.476562 240.796875 C 583.714844 241.300781 583.9375 241.8125 584.144531 242.328125 C 584.351562 242.84375 584.542969 243.363281 584.71875 243.890625 C 584.894531 244.417969 585.054688 244.953125 585.199219 245.488281 C 585.34375 246.023438 585.472656 246.566406 585.585938 247.109375 C 585.699219 247.652344 585.796875 248.199219 585.878906 248.75 C 585.957031 249.300781 586.023438 249.851562 586.070312 250.40625 C 586.117188 250.960938 586.152344 251.515625 586.167969 252.070312 C 586.183594 252.625 586.179688 253.179688 586.164062 253.738281 C 586.144531 254.292969 586.113281 254.847656 586.0625 255.402344 C 586.011719 255.953125 585.945312 256.503906 585.863281 257.054688 C 585.78125 257.605469 585.683594 258.152344 585.566406 258.695312 C 585.453125 259.238281 585.320312 259.78125 585.175781 260.316406 C 585.027344 260.851562 584.867188 261.382812 584.6875 261.910156 C 584.511719 262.4375 584.316406 262.957031 584.109375 263.472656 C 583.898438 263.988281 583.675781 264.496094 583.4375 265 C 583.199219 265.5 582.945312 265.996094 582.679688 266.484375 C 582.410156 266.96875 582.128906 267.449219 581.832031 267.921875 C 581.535156 268.390625 581.226562 268.851562 580.902344 269.304688 C 580.578125 269.757812 580.242188 270.199219 579.894531 270.632812 C 579.542969 271.066406 579.183594 271.488281 578.808594 271.898438 C 578.433594 272.3125 578.046875 272.710938 577.648438 273.101562 C 577.25 273.488281 576.84375 273.867188 576.421875 274.230469 C 576.003906 274.59375 575.570312 274.949219 575.132812 275.285156 C 574.691406 275.625 574.238281 275.953125 573.78125 276.265625 C 573.320312 276.578125 572.851562 276.878906 572.371094 277.164062 C 571.894531 277.449219 571.410156 277.71875 570.914062 277.976562 C 570.421875 278.234375 569.921875 278.476562 569.414062 278.703125 C 568.90625 278.929688 568.390625 279.144531 567.871094 279.339844 C 567.347656 279.539062 566.824219 279.71875 566.292969 279.886719 C 565.761719 280.054688 565.226562 280.203125 564.683594 280.339844 C 564.144531 280.472656 563.601562 280.59375 563.054688 280.695312 Z M 606.722656 286.320312 C 606.347656 286.5 606.007812 286.734375 605.707031 287.019531 C 605.40625 287.300781 605.152344 287.625 604.949219 287.988281 C 604.746094 288.347656 604.601562 288.734375 604.515625 289.140625 C 604.433594 289.546875 604.410156 289.957031 604.453125 290.367188 L 605.464844 297.53125 L 590.421875 289.113281 C 590.023438 288.910156 589.605469 288.761719 589.164062 288.667969 C 584.878906 287.832031 581 286.089844 577.527344 283.449219 C 578.539062 282.804688 579.515625 282.113281 580.457031 281.375 C 581.398438 280.640625 582.300781 279.855469 583.167969 279.03125 C 584.03125 278.203125 584.851562 277.335938 585.632812 276.425781 C 586.410156 275.519531 587.144531 274.574219 587.832031 273.597656 C 588.515625 272.617188 589.152344 271.605469 589.738281 270.5625 C 590.324219 269.519531 590.859375 268.453125 591.339844 267.359375 C 591.820312 266.265625 592.25 265.148438 592.617188 264.011719 C 592.988281 262.875 593.304688 261.722656 593.5625 260.554688 C 593.820312 259.386719 594.019531 258.210938 594.160156 257.023438 C 594.300781 255.835938 594.382812 254.644531 594.40625 253.449219 C 594.429688 252.253906 594.394531 251.0625 594.300781 249.871094 C 594.207031 248.679688 594.054688 247.496094 593.84375 246.316406 C 593.632812 245.140625 593.367188 243.976562 593.042969 242.828125 C 592.714844 241.675781 592.335938 240.546875 591.898438 239.433594 C 591.460938 238.320312 590.96875 237.230469 590.425781 236.167969 C 589.878906 235.101562 589.285156 234.066406 588.636719 233.058594 C 590.550781 232.652344 592.480469 232.449219 594.4375 232.453125 C 596.03125 232.460938 597.613281 232.601562 599.183594 232.875 C 600.753906 233.144531 602.289062 233.546875 603.792969 234.078125 C 605.296875 234.609375 606.742188 235.265625 608.136719 236.039062 C 609.527344 236.8125 610.84375 237.699219 612.089844 238.695312 C 613.332031 239.691406 614.480469 240.785156 615.539062 241.976562 C 616.597656 243.164062 617.550781 244.433594 618.394531 245.785156 C 619.238281 247.136719 619.960938 248.546875 620.566406 250.019531 C 621.171875 251.488281 621.652344 253 622 254.554688 C 622.351562 256.105469 622.570312 257.675781 622.65625 259.265625 C 622.742188 260.855469 622.691406 262.4375 622.511719 264.019531 C 622.328125 265.601562 622.015625 267.15625 621.570312 268.683594 C 621.125 270.210938 620.554688 271.691406 619.863281 273.125 C 619.167969 274.554688 618.359375 275.917969 617.433594 277.214844 C 616.507812 278.511719 615.480469 279.722656 614.351562 280.84375 C 613.222656 281.96875 612.007812 282.988281 610.707031 283.910156 C 609.40625 284.828125 608.039062 285.632812 606.601562 286.320312 Z M 606.722656 286.320312 " fill-opacity="1" fill-rule="nonzero"/><path fill="#000000" d="M 551.863281 252.6875 C 551.863281 253.085938 551.824219 253.484375 551.746094 253.875 C 551.667969 254.265625 551.550781 254.644531 551.398438 255.011719 C 551.246094 255.378906 551.058594 255.730469 550.835938 256.0625 C 550.617188 256.394531 550.363281 256.699219 550.082031 256.980469 C 549.796875 257.261719 549.492188 257.515625 549.160156 257.738281 C 548.828125 257.957031 548.476562 258.144531 548.109375 258.296875 C 547.738281 258.449219 547.359375 258.566406 546.96875 258.644531 C 546.574219 258.722656 546.179688 258.761719 545.78125 258.761719 C 545.382812 258.761719 544.984375 258.722656 544.59375 258.644531 C 544.203125 258.566406 543.820312 258.449219 543.453125 258.296875 C 543.082031 258.144531 542.734375 257.957031 542.402344 257.738281 C 542.070312 257.515625 541.761719 257.261719 541.480469 256.980469 C 541.199219 256.699219 540.945312 256.394531 540.722656 256.0625 C 540.5 255.730469 540.3125 255.378906 540.160156 255.011719 C 540.007812 254.644531 539.894531 254.265625 539.816406 253.875 C 539.738281 253.484375 539.699219 253.085938 539.699219 252.6875 C 539.699219 252.289062 539.738281 251.894531 539.816406 251.503906 C 539.894531 251.113281 540.007812 250.734375 540.160156 250.367188 C 540.3125 249.996094 540.5 249.648438 540.722656 249.316406 C 540.945312 248.984375 541.199219 248.679688 541.480469 248.394531 C 541.761719 248.113281 542.070312 247.863281 542.402344 247.640625 C 542.734375 247.421875 543.082031 247.234375 543.453125 247.082031 C 543.820312 246.929688 544.203125 246.8125 544.59375 246.734375 C 544.984375 246.65625 545.382812 246.617188 545.78125 246.617188 C 546.179688 246.617188 546.574219 246.65625 546.96875 246.734375 C 547.359375 246.8125 547.738281 246.929688 548.109375 247.082031 C 548.476562 247.234375 548.828125 247.421875 549.160156 247.640625 C 549.492188 247.863281 549.796875 248.113281 550.082031 248.394531 C 550.363281 248.679688 550.617188 248.984375 550.835938 249.316406 C 551.058594 249.648438 551.246094 249.996094 551.398438 250.367188 C 551.550781 250.734375 551.667969 251.113281 551.746094 251.503906 C 551.824219 251.894531 551.863281 252.289062 551.863281 252.6875 Z M 551.863281 252.6875 " fill-opacity="1" fill-rule="nonzero"/><path fill="#000000" d="M 564.027344 252.6875 C 564.027344 253.085938 563.988281 253.484375 563.910156 253.875 C 563.832031 254.265625 563.714844 254.644531 563.5625 255.011719 C 563.410156 255.378906 563.222656 255.730469 563 256.0625 C 562.78125 256.394531 562.527344 256.699219 562.246094 256.980469 C 561.960938 257.261719 561.65625 257.515625 561.324219 257.738281 C 560.992188 257.957031 560.640625 258.144531 560.273438 258.296875 C 559.902344 258.449219 559.523438 258.566406 559.132812 258.644531 C 558.738281 258.722656 558.34375 258.761719 557.945312 258.761719 C 557.546875 258.761719 557.148438 258.722656 556.757812 258.644531 C 556.367188 258.566406 555.984375 258.449219 555.617188 258.296875 C 555.246094 258.144531 554.898438 257.957031 554.566406 257.738281 C 554.234375 257.515625 553.925781 257.261719 553.644531 256.980469 C 553.363281 256.699219 553.109375 256.394531 552.886719 256.0625 C 552.664062 255.730469 552.476562 255.378906 552.324219 255.011719 C 552.171875 254.644531 552.058594 254.265625 551.980469 253.875 C 551.902344 253.484375 551.863281 253.085938 551.863281 252.6875 C 551.863281 252.289062 551.902344 251.894531 551.980469 251.503906 C 552.058594 251.113281 552.171875 250.734375 552.324219 250.367188 C 552.476562 249.996094 552.664062 249.648438 552.886719 249.316406 C 553.109375 248.984375 553.363281 248.679688 553.644531 248.394531 C 553.925781 248.113281 554.234375 247.863281 554.566406 247.640625 C 554.898438 247.421875 555.246094 247.234375 555.617188 247.082031 C 555.984375 246.929688 556.367188 246.8125 556.757812 246.734375 C 557.148438 246.65625 557.546875 246.617188 557.945312 246.617188 C 558.34375 246.617188 558.738281 246.65625 559.132812 246.734375 C 559.523438 246.8125 559.902344 246.929688 560.273438 247.082031 C 560.640625 247.234375 560.992188 247.421875 561.324219 247.640625 C 561.65625 247.863281 561.960938 248.113281 562.246094 248.394531 C 562.527344 248.679688 562.78125 248.984375 563 249.316406 C 563.222656 249.648438 563.410156 249.996094 563.5625 250.367188 C 563.714844 250.734375 563.832031 251.113281 563.910156 251.503906 C 563.988281 251.894531 564.027344 252.289062 564.027344 252.6875 Z M 564.027344 252.6875 " fill-opacity="1" fill-rule="nonzero"/><path fill="#000000" d="M 576.191406 252.6875 C 576.191406 253.085938 576.152344 253.484375 576.074219 253.875 C 575.996094 254.265625 575.878906 254.644531 575.726562 255.011719 C 575.574219 255.378906 575.386719 255.730469 575.164062 256.0625 C 574.945312 256.394531 574.691406 256.699219 574.410156 256.980469 C 574.125 257.261719 573.820312 257.515625 573.488281 257.738281 C 573.15625 257.957031 572.804688 258.144531 572.4375 258.296875 C 572.066406 258.449219 571.6875 258.566406 571.296875 258.644531 C 570.902344 258.722656 570.507812 258.761719 570.109375 258.761719 C 569.710938 258.761719 569.3125 258.722656 568.921875 258.644531 C 568.53125 258.566406 568.148438 258.449219 567.78125 258.296875 C 567.410156 258.144531 567.0625 257.957031 566.730469 257.738281 C 566.398438 257.515625 566.089844 257.261719 565.808594 256.980469 C 565.527344 256.699219 565.273438 256.394531 565.050781 256.0625 C 564.828125 255.730469 564.640625 255.378906 564.488281 255.011719 C 564.335938 254.644531 564.222656 254.265625 564.144531 253.875 C 564.066406 253.484375 564.027344 253.085938 564.027344 252.6875 C 564.027344 252.289062 564.066406 251.894531 564.144531 251.503906 C 564.222656 251.113281 564.335938 250.734375 564.488281 250.367188 C 564.640625 249.996094 564.828125 249.648438 565.050781 249.316406 C 565.273438 248.984375 565.527344 248.679688 565.808594 248.394531 C 566.089844 248.113281 566.398438 247.863281 566.730469 247.640625 C 567.0625 247.421875 567.410156 247.234375 567.78125 247.082031 C 568.148438 246.929688 568.53125 246.8125 568.921875 246.734375 C 569.3125 246.65625 569.710938 246.617188 570.109375 246.617188 C 570.507812 246.617188 570.902344 246.65625 571.296875 246.734375 C 571.6875 246.8125 572.066406 246.929688 572.4375 247.082031 C 572.804688 247.234375 573.15625 247.421875 573.488281 247.640625 C 573.820312 247.863281 574.125 248.113281 574.410156 248.394531 C 574.691406 248.679688 574.945312 248.984375 575.164062 249.316406 C 575.386719 249.648438 575.574219 249.996094 575.726562 250.367188 C 575.878906 250.734375 575.996094 251.113281 576.074219 251.503906 C 576.152344 251.894531 576.191406 252.289062 576.191406 252.6875 Z M 576.191406 252.6875 " fill-opacity="1" fill-rule="nonzero"/></svg>