<svg xmlns="http://www.w3.org/2000/svg" xmlns:xlink="http://www.w3.org/1999/xlink" width="1536" zoomAndPan="magnify" viewBox="0 0 1152 647.999998" height="864" preserveAspectRatio="xMidYMid meet" version="1.0"><defs><clipPath id="adde8d4839"><path d="M 613 320 L 695.105469 320 L 695.105469 434 L 613 434 Z M 613 320 " clip-rule="nonzero"/></clipPath><clipPath id="e72476280f"><path d="M 456.605469 218 L 539 218 L 539 325 L 456.605469 325 Z M 456.605469 218 " clip-rule="nonzero"/></clipPath><clipPath id="7c9f5153b2"><path d="M 493 348 L 657 348 L 657 453.898438 L 493 453.898438 Z M 493 348 " clip-rule="nonzero"/></clipPath><clipPath id="c58d4a0cd8"><path d="M 493 194.398438 L 657 194.398438 L 657 314 L 493 314 Z M 493 194.398438 " clip-rule="nonzero"/></clipPath></defs><path fill="#284a55" d="M 625.777344 314.019531 C 625.777344 311.792969 623.960938 309.96875 621.738281 309.96875 L 527.953125 309.96875 C 525.730469 309.96875 523.910156 311.792969 523.910156 314.019531 C 523.910156 316.25 525.730469 318.070312 527.953125 318.070312 L 621.738281 318.070312 C 623.960938 318.070312 625.777344 316.25 625.777344 314.019531 Z M 625.777344 314.019531 " fill-opacity="1" fill-rule="nonzero"/><g clip-path="url(#adde8d4839)"><path fill="#284a55" d="M 691.265625 368.113281 C 692.882812 366.289062 695.105469 363.859375 695.105469 360.617188 C 695.105469 357.375 693.085938 354.945312 691.265625 353.121094 C 690.660156 352.511719 689.851562 351.5 689.648438 351.09375 C 689.648438 350.691406 689.851562 349.273438 690.054688 348.460938 C 690.660156 346.03125 691.265625 342.992188 689.648438 340.359375 C 688.03125 337.519531 685 336.710938 682.777344 335.902344 C 681.96875 335.699219 680.554688 335.292969 680.351562 334.886719 C 680.148438 334.480469 679.542969 333.265625 679.339844 332.457031 C 678.53125 330.023438 677.523438 327.1875 674.894531 325.566406 C 672.0625 323.949219 669.03125 324.554688 666.605469 325.164062 C 665.796875 325.367188 664.382812 325.566406 663.980469 325.566406 C 663.574219 325.367188 662.566406 324.554688 661.957031 323.949219 C 660.140625 322.328125 657.714844 320.097656 654.480469 320.097656 C 651.246094 320.097656 648.820312 322.125 647 323.949219 C 646.394531 324.554688 645.386719 325.367188 644.980469 325.566406 C 644.578125 325.566406 643.160156 325.367188 642.351562 325.164062 C 639.925781 324.554688 636.894531 323.949219 634.066406 325.566406 C 631.238281 327.1875 630.226562 330.023438 629.621094 332.457031 C 629.417969 333.265625 629.011719 334.683594 628.609375 334.886719 C 628.203125 335.089844 626.992188 335.699219 626.183594 335.902344 C 623.757812 336.710938 620.929688 337.519531 619.3125 340.359375 C 617.695312 343.195312 618.300781 346.03125 618.90625 348.460938 C 619.109375 349.273438 619.3125 350.691406 619.3125 351.09375 C 619.109375 351.5 618.300781 352.511719 617.695312 353.121094 C 616.078125 354.945312 613.855469 357.375 613.855469 360.617188 C 613.855469 363.859375 615.875 366.289062 617.695312 368.113281 C 618.300781 368.722656 619.109375 369.734375 619.3125 370.140625 C 619.3125 370.542969 619.109375 371.960938 618.90625 372.773438 C 618.300781 375.203125 617.695312 378.242188 619.3125 380.875 C 620.929688 383.714844 623.960938 384.523438 626.183594 385.332031 C 626.992188 385.535156 628.40625 385.941406 628.609375 386.347656 C 628.8125 386.75 629.417969 387.96875 629.621094 388.777344 C 630.429688 391.207031 631.4375 394.046875 634.066406 395.664062 C 634.671875 396.070312 635.480469 396.273438 636.085938 396.476562 L 636.085938 429.5 C 636.085938 431.121094 637.097656 432.539062 638.511719 433.144531 C 639.925781 433.753906 641.542969 433.550781 642.757812 432.539062 L 654.480469 422.8125 L 666.203125 432.539062 C 667.011719 433.144531 667.820312 433.550781 668.832031 433.550781 C 669.4375 433.550781 670.042969 433.347656 670.648438 433.144531 C 672.0625 432.539062 673.074219 431.121094 673.074219 429.5 L 673.074219 396.476562 C 673.679688 396.273438 674.488281 396.070312 675.097656 395.664062 C 677.925781 394.046875 678.9375 391.207031 679.542969 388.777344 C 679.746094 387.96875 680.148438 386.550781 680.554688 386.347656 C 680.957031 386.144531 682.171875 385.535156 682.980469 385.332031 C 685.402344 384.523438 688.234375 383.710938 689.851562 380.875 C 691.46875 378.039062 690.863281 375.203125 690.253906 372.773438 C 690.054688 371.960938 689.851562 370.542969 689.851562 370.140625 C 689.851562 369.734375 690.660156 368.722656 691.265625 368.113281 Z M 664.585938 420.789062 L 656.90625 414.507812 C 655.492188 413.292969 653.265625 413.292969 651.652344 414.507812 L 643.96875 420.789062 L 643.96875 395.867188 C 644.171875 395.867188 644.578125 395.867188 644.578125 395.867188 C 644.980469 396.070312 645.992188 396.882812 646.597656 397.488281 C 648.417969 399.109375 650.84375 401.339844 654.074219 401.339844 C 657.308594 401.339844 659.734375 399.3125 661.554688 397.488281 C 662.160156 396.882812 663.171875 396.070312 663.574219 395.867188 C 663.777344 395.867188 663.980469 395.867188 664.382812 395.867188 L 664.382812 420.789062 Z M 685.203125 362.644531 C 683.789062 364.0625 682.371094 365.683594 681.765625 367.910156 C 681.160156 370.140625 681.5625 372.367188 681.96875 374.394531 C 682.171875 375 682.371094 376.21875 682.371094 376.824219 C 681.765625 377.027344 680.753906 377.433594 680.148438 377.636719 C 678.332031 378.242188 676.105469 378.851562 674.488281 380.675781 C 672.871094 382.292969 672.0625 384.523438 671.457031 386.347656 C 671.257812 386.953125 670.851562 388.171875 670.648438 388.574219 C 670.042969 388.574219 669.03125 388.371094 668.222656 388.171875 C 666.203125 387.765625 663.980469 387.359375 661.757812 387.96875 C 659.53125 388.574219 657.917969 389.992188 656.300781 391.410156 C 655.691406 392.019531 654.882812 392.828125 654.277344 393.03125 C 653.671875 392.828125 652.863281 392.019531 652.257812 391.410156 C 650.84375 389.992188 649.023438 388.574219 646.800781 387.96875 C 645.992188 387.765625 645.183594 387.765625 644.375 387.765625 C 642.960938 387.765625 641.542969 387.96875 640.128906 388.371094 C 639.320312 388.574219 638.3125 388.777344 637.703125 388.777344 C 637.503906 388.171875 637.097656 387.15625 636.894531 386.550781 C 636.289062 384.726562 635.480469 382.496094 633.863281 380.875 C 632.449219 379.054688 630.429688 378.242188 628.40625 377.636719 C 627.597656 377.433594 626.386719 377.027344 625.980469 376.824219 C 625.980469 376.21875 626.183594 375 626.386719 374.394531 C 626.789062 372.367188 627.195312 370.140625 626.585938 367.910156 C 625.980469 365.683594 624.566406 364.0625 623.152344 362.644531 C 622.546875 362.035156 621.738281 361.226562 621.535156 360.617188 C 621.738281 360.210938 622.546875 359.199219 623.152344 358.589844 C 624.566406 357.171875 625.980469 355.550781 626.585938 353.324219 C 627.195312 351.09375 626.789062 348.867188 626.386719 346.839844 C 626.183594 346.234375 625.980469 345.015625 625.980469 344.410156 C 626.585938 344.207031 627.597656 343.800781 628.203125 343.597656 C 630.023438 342.992188 632.246094 342.382812 633.863281 340.558594 C 635.480469 338.941406 636.289062 336.710938 636.894531 334.886719 C 637.097656 334.28125 637.503906 333.0625 637.703125 332.660156 C 638.3125 332.660156 639.320312 332.863281 640.128906 333.0625 C 642.152344 333.46875 644.375 333.875 646.597656 333.265625 C 648.820312 332.660156 650.4375 331.242188 652.054688 329.824219 C 652.660156 329.214844 653.46875 328.40625 654.074219 328.203125 C 654.683594 328.40625 655.492188 329.214844 656.097656 329.824219 C 657.511719 331.242188 659.332031 332.660156 661.554688 333.265625 C 663.777344 333.875 666 333.46875 668.023438 333.0625 C 668.832031 332.863281 669.839844 332.660156 670.449219 332.660156 C 670.648438 333.265625 671.054688 334.28125 671.257812 334.886719 C 671.863281 336.710938 672.671875 338.941406 674.289062 340.558594 C 675.90625 342.179688 678.128906 342.992188 679.945312 343.597656 C 680.753906 343.800781 681.96875 344.207031 682.371094 344.410156 C 682.371094 345.015625 682.171875 346.234375 681.96875 346.839844 C 681.5625 348.867188 681.160156 351.09375 681.765625 353.324219 C 682.371094 355.550781 683.789062 357.171875 685.203125 358.589844 C 685.808594 359.199219 686.617188 360.007812 686.820312 360.617188 C 686.617188 361.226562 685.808594 362.035156 685.203125 362.644531 Z M 685.203125 362.644531 " fill-opacity="1" fill-rule="nonzero"/></g><path fill="#284a55" d="M 654.277344 340.359375 C 642.960938 340.359375 633.863281 349.472656 633.863281 360.617188 C 633.863281 371.761719 642.960938 380.875 654.277344 380.875 C 665.597656 380.875 674.691406 371.761719 674.691406 360.617188 C 674.691406 349.472656 665.597656 340.359375 654.277344 340.359375 Z M 654.277344 372.773438 C 647.609375 372.773438 641.949219 367.300781 641.949219 360.617188 C 641.949219 353.929688 647.40625 348.460938 654.277344 348.460938 C 661.148438 348.460938 666.605469 353.929688 666.605469 360.617188 C 666.605469 367.300781 660.949219 372.773438 654.277344 372.773438 Z M 654.277344 372.773438 " fill-opacity="1" fill-rule="nonzero"/><path fill="#284a55" d="M 635.886719 214.75 C 635.886719 212.519531 634.066406 210.695312 631.84375 210.695312 L 517.847656 210.695312 C 516.027344 210.695312 514.613281 211.914062 514.007812 213.535156 C 517.644531 214.953125 521.285156 216.570312 524.519531 218.800781 L 632.046875 218.800781 C 634.066406 218.800781 635.886719 216.976562 635.886719 214.75 Z M 635.886719 214.75 " fill-opacity="1" fill-rule="nonzero"/><path fill="#284a55" d="M 621.738281 289.707031 L 536.847656 289.707031 C 536.847656 289.910156 536.644531 289.910156 536.644531 290.113281 C 535.835938 291.53125 534.625 293.152344 533.410156 294.976562 C 532.804688 295.785156 532.199219 296.800781 531.59375 297.8125 L 621.535156 297.8125 C 623.757812 297.8125 625.578125 295.988281 625.578125 293.761719 C 625.578125 291.53125 623.960938 289.707031 621.738281 289.707031 Z M 621.738281 289.707031 " fill-opacity="1" fill-rule="nonzero"/><path fill="#284a55" d="M 624.769531 273.5 C 624.769531 271.273438 622.949219 269.449219 620.726562 269.449219 L 545.335938 269.449219 C 544.730469 272.082031 543.921875 274.71875 542.910156 277.554688 L 620.523438 277.554688 C 622.949219 277.554688 624.769531 275.730469 624.769531 273.5 Z M 624.769531 273.5 " fill-opacity="1" fill-rule="nonzero"/><g clip-path="url(#e72476280f)"><path fill="#284a55" d="M 503.699219 324.148438 C 508.347656 324.148438 512.59375 320.707031 514.007812 315.84375 C 516.636719 305.714844 522.496094 297.003906 526.742188 290.519531 C 527.953125 288.898438 528.964844 287.277344 529.773438 285.859375 C 531.1875 283.632812 532.199219 281.605469 533.207031 279.78125 C 536.644531 272.894531 538.261719 266.613281 538.261719 260.332031 C 538.261719 237.4375 520.273438 218.597656 498.242188 218.597656 L 496.828125 218.597656 C 474.59375 218.800781 456.605469 237.4375 456.605469 260.535156 C 456.605469 266.816406 458.222656 273.097656 461.660156 279.984375 C 462.667969 282.011719 463.679688 284.035156 465.09375 286.0625 C 465.902344 287.480469 466.914062 289.101562 468.125 290.722656 C 472.371094 297.003906 478.03125 305.714844 480.859375 316.046875 C 482.074219 320.910156 486.519531 324.351562 491.167969 324.351562 L 503.699219 324.351562 Z M 488.539062 313.816406 C 485.507812 302.472656 479.242188 292.949219 474.796875 286.265625 C 473.785156 284.644531 472.777344 283.226562 471.96875 281.808594 C 470.753906 279.78125 469.742188 277.957031 468.933594 276.335938 C 466.105469 270.460938 464.691406 265.398438 464.691406 260.535156 C 464.691406 241.898438 479.042969 226.90625 496.625 226.90625 L 498.039062 226.90625 C 515.625 226.90625 529.976562 241.898438 529.976562 260.535156 C 529.976562 265.398438 528.558594 270.664062 525.730469 276.335938 C 524.921875 278.160156 523.910156 279.984375 522.699219 281.808594 C 521.890625 283.023438 520.878906 284.644531 519.867188 286.265625 C 515.421875 293.152344 509.15625 302.472656 506.125 313.816406 C 505.722656 315.035156 504.507812 316.046875 503.699219 316.046875 L 501.273438 316.046875 L 501.273438 285.25 C 501.273438 283.023438 499.457031 281.199219 497.230469 281.199219 C 495.007812 281.199219 493.1875 283.023438 493.1875 285.25 L 493.1875 316.046875 L 490.964844 316.046875 C 490.15625 316.046875 488.945312 315.035156 488.539062 313.816406 Z M 488.539062 313.816406 " fill-opacity="1" fill-rule="nonzero"/></g><path fill="#284a55" d="M 509.5625 336.304688 C 509.5625 334.078125 507.742188 332.253906 505.519531 332.253906 L 489.148438 332.253906 C 486.921875 332.253906 485.105469 334.078125 485.105469 336.304688 C 485.105469 338.535156 486.921875 340.359375 489.148438 340.359375 L 505.519531 340.359375 C 507.742188 340.359375 509.5625 338.535156 509.5625 336.304688 Z M 509.5625 336.304688 " fill-opacity="1" fill-rule="nonzero"/><g clip-path="url(#7c9f5153b2)"><path fill="#284a55" d="M 648.214844 438.617188 L 648.214844 441.65625 C 648.214844 443.882812 646.394531 445.707031 644.171875 445.707031 L 505.519531 445.707031 C 503.296875 445.707031 501.476562 443.882812 501.476562 441.65625 L 501.476562 348.460938 L 493.390625 348.460938 L 493.390625 441.65625 C 493.390625 448.339844 498.847656 453.8125 505.722656 453.8125 L 644.375 453.8125 C 651.042969 453.8125 656.703125 448.339844 656.703125 441.65625 L 656.703125 435.171875 L 654.683594 433.550781 Z M 648.214844 438.617188 " fill-opacity="1" fill-rule="nonzero"/></g><g clip-path="url(#c58d4a0cd8)"><path fill="#284a55" d="M 498.039062 210.695312 C 499.253906 210.695312 500.261719 210.695312 501.476562 210.898438 L 501.476562 206.644531 C 501.476562 204.417969 503.296875 202.59375 505.519531 202.59375 L 644.171875 202.59375 C 646.394531 202.59375 648.214844 204.417969 648.214844 206.644531 L 648.214844 313.210938 C 650.035156 312.398438 652.054688 311.996094 654.277344 311.996094 C 654.882812 311.996094 655.691406 311.996094 656.300781 312.195312 L 656.300781 206.644531 C 656.300781 199.960938 650.84375 194.488281 643.96875 194.488281 L 505.519531 194.488281 C 498.847656 194.488281 493.1875 199.960938 493.1875 206.644531 L 493.1875 210.898438 C 494.402344 210.695312 495.613281 210.695312 496.625 210.695312 Z M 498.039062 210.695312 " fill-opacity="1" fill-rule="nonzero"/></g><path fill="#284a55" d="M 618.300781 330.226562 L 527.953125 330.226562 C 525.730469 330.226562 523.910156 332.050781 523.910156 334.28125 C 523.910156 336.507812 525.730469 338.332031 527.953125 338.332031 L 611.023438 338.332031 C 611.226562 337.722656 611.632812 336.914062 612.035156 336.304688 C 613.652344 333.265625 616.078125 331.445312 618.300781 330.226562 Z M 618.300781 330.226562 " fill-opacity="1" fill-rule="nonzero"/><path fill="#284a55" d="M 527.953125 358.589844 L 605.566406 358.589844 C 605.972656 355.148438 607.589844 352.511719 609.003906 350.488281 L 527.953125 350.488281 C 525.730469 350.488281 523.910156 352.3125 523.910156 354.539062 C 523.910156 356.769531 525.730469 358.589844 527.953125 358.589844 Z M 527.953125 358.589844 " fill-opacity="1" fill-rule="nonzero"/><path fill="#284a55" d="M 527.953125 378.851562 L 610.015625 378.851562 C 609.8125 376.417969 610.015625 374.191406 610.417969 372.367188 C 610.015625 371.960938 609.609375 371.355469 609.003906 370.746094 L 527.953125 370.746094 C 525.730469 370.746094 523.910156 372.570312 523.910156 374.796875 C 523.910156 377.027344 525.730469 378.851562 527.953125 378.851562 Z M 527.953125 378.851562 " fill-opacity="1" fill-rule="nonzero"/><path fill="#284a55" d="M 517.847656 429.5 C 515.625 429.5 513.804688 431.324219 513.804688 433.550781 C 513.804688 435.78125 515.625 437.601562 517.847656 437.601562 L 631.035156 437.601562 C 629.011719 435.375 628.003906 432.539062 628.003906 429.5 Z M 517.847656 429.5 " fill-opacity="1" fill-rule="nonzero"/></svg>