<svg xmlns="http://www.w3.org/2000/svg" xmlns:xlink="http://www.w3.org/1999/xlink" width="1536" zoomAndPan="magnify" viewBox="0 0 1152 647.999998" height="864" preserveAspectRatio="xMidYMid meet" version="1.0"><defs fill="#000000"><clipPath id="d946878bcf" fill="#000000"><path d="M 446.398438 196.183594 L 705.898438 196.183594 L 705.898438 451.933594 L 446.398438 451.933594 Z M 446.398438 196.183594 " clip-rule="nonzero" fill="#000000"/></clipPath></defs><g clip-path="url(#0000008bcf)"><path fill="#000000" d="M 704.9375 283.445312 L 678.902344 257.429688 C 677.5625 256.089844 675.382812 256.089844 674.042969 257.429688 L 660.113281 271.347656 C 660.101562 271.355469 660.09375 271.371094 660.085938 271.382812 L 643.132812 288.324219 L 643.132812 213.402344 C 643.132812 203.925781 635.417969 196.222656 625.9375 196.222656 L 463.621094 196.222656 C 454.136719 196.222656 446.425781 203.925781 446.425781 213.402344 L 446.425781 434.710938 C 446.425781 444.1875 454.136719 451.894531 463.621094 451.894531 L 625.9375 451.894531 C 635.417969 451.894531 643.132812 444.1875 643.132812 434.710938 L 643.132812 350.070312 L 691.015625 302.222656 C 691.03125 302.207031 691.035156 302.195312 691.050781 302.179688 L 704.9375 288.304688 C 705.582031 287.65625 705.941406 286.785156 705.941406 285.878906 C 705.941406 284.964844 705.582031 284.089844 704.9375 283.445312 Z M 636.253906 434.710938 C 636.253906 440.394531 631.628906 445.019531 625.9375 445.019531 L 463.621094 445.019531 C 457.933594 445.019531 453.304688 440.394531 453.304688 434.710938 L 453.304688 213.402344 C 453.304688 207.71875 457.933594 203.09375 463.621094 203.09375 L 625.9375 203.09375 C 631.628906 203.09375 636.253906 207.71875 636.253906 213.402344 L 636.253906 295.199219 L 594.628906 336.792969 L 477.957031 336.792969 C 476.058594 336.792969 474.515625 338.332031 474.515625 340.230469 C 474.515625 342.125 476.058594 343.667969 477.957031 343.667969 L 587.753906 343.667969 L 561.375 370.023438 L 477.957031 370.023438 C 476.058594 370.023438 474.515625 371.5625 474.515625 373.460938 C 474.515625 375.355469 476.058594 376.894531 477.957031 376.894531 L 555.109375 376.894531 C 555.105469 376.917969 555.097656 376.9375 555.089844 376.957031 L 548.121094 403.246094 L 477.957031 403.246094 C 476.058594 403.246094 474.515625 404.785156 474.515625 406.683594 C 474.515625 408.582031 476.058594 410.121094 477.957031 410.121094 L 546.300781 410.121094 L 545.707031 412.347656 C 545.390625 413.527344 545.734375 414.792969 546.601562 415.660156 C 547.257812 416.3125 548.128906 416.664062 549.03125 416.664062 C 549.328125 416.664062 549.621094 416.628906 549.910156 416.546875 L 574.195312 410.121094 L 611.605469 410.121094 C 613.503906 410.121094 615.042969 408.582031 615.042969 406.683594 C 615.042969 404.785156 613.503906 403.246094 611.605469 403.246094 L 589.917969 403.246094 L 636.253906 356.945312 Z M 688.582031 294.929688 L 667.410156 273.773438 L 676.46875 264.722656 L 697.640625 285.878906 Z M 688.582031 294.929688 " fill-opacity="1" fill-rule="nonzero"/></g><path fill="#000000" d="M 513.375 243.988281 L 576.183594 243.988281 C 578.085938 243.988281 579.625 242.449219 579.625 240.550781 C 579.625 238.652344 578.085938 237.113281 576.183594 237.113281 L 513.375 237.113281 C 511.476562 237.113281 509.9375 238.652344 509.9375 240.550781 C 509.9375 242.449219 511.476562 243.988281 513.375 243.988281 Z M 513.375 243.988281 " fill-opacity="1" fill-rule="nonzero"/><path fill="#000000" d="M 477.957031 277.214844 L 611.605469 277.214844 C 613.503906 277.214844 615.042969 275.675781 615.042969 273.777344 C 615.042969 271.878906 613.503906 270.339844 611.605469 270.339844 L 477.957031 270.339844 C 476.054688 270.339844 474.515625 271.878906 474.515625 273.777344 C 474.515625 275.675781 476.054688 277.214844 477.957031 277.214844 Z M 477.957031 277.214844 " fill-opacity="1" fill-rule="nonzero"/><path fill="#000000" d="M 477.957031 310.441406 L 611.605469 310.441406 C 613.503906 310.441406 615.042969 308.902344 615.042969 307.003906 C 615.042969 305.105469 613.503906 303.566406 611.605469 303.566406 L 477.957031 303.566406 C 476.054688 303.566406 474.515625 305.105469 474.515625 307.003906 C 474.515625 308.902344 476.054688 310.441406 477.957031 310.441406 Z M 477.957031 310.441406 " fill-opacity="1" fill-rule="nonzero"/></svg>