<svg xmlns="http://www.w3.org/2000/svg" xmlns:xlink="http://www.w3.org/1999/xlink" width="1536" zoomAndPan="magnify" viewBox="0 0 1152 647.999998" height="864" preserveAspectRatio="xMidYMid meet" version="1.0"><defs><clipPath id="5ec392d5f1"><path d="M 446.398438 378 L 598 378 L 598 425.25 L 446.398438 425.25 Z M 446.398438 378 " clip-rule="nonzero"/></clipPath><clipPath id="bba150fe25"><path d="M 517 222.75 L 705.898438 222.75 L 705.898438 412 L 517 412 Z M 517 222.75 " clip-rule="nonzero"/></clipPath></defs><g clip-path="url(#5ec392d5f1)"><path fill="#284a55" d="M 567.6875 398.945312 C 566.035156 387.253906 554.085938 378.15625 539.609375 378.15625 L 504.25 378.15625 C 489.773438 378.15625 477.84375 387.253906 476.171875 398.945312 C 459.765625 402.207031 446.492188 409.539062 446.492188 420.539062 C 446.492188 420.851562 446.523438 421.15625 446.582031 421.460938 C 446.644531 421.761719 446.730469 422.058594 446.851562 422.34375 C 446.96875 422.628906 447.113281 422.898438 447.285156 423.15625 C 447.457031 423.414062 447.652344 423.652344 447.871094 423.871094 C 448.089844 424.089844 448.328125 424.285156 448.585938 424.457031 C 448.84375 424.628906 449.117188 424.773438 449.402344 424.890625 C 449.6875 425.011719 449.984375 425.097656 450.285156 425.160156 C 450.589844 425.21875 450.898438 425.25 451.207031 425.25 L 592.652344 425.25 C 592.960938 425.25 593.269531 425.21875 593.570312 425.160156 C 593.875 425.097656 594.171875 425.011719 594.457031 424.890625 C 594.742188 424.773438 595.015625 424.628906 595.269531 424.457031 C 595.527344 424.285156 595.765625 424.089844 595.984375 423.871094 C 596.203125 423.652344 596.398438 423.414062 596.570312 423.15625 C 596.742188 422.898438 596.890625 422.628906 597.007812 422.34375 C 597.125 422.058594 597.214844 421.761719 597.277344 421.460938 C 597.335938 421.15625 597.367188 420.851562 597.367188 420.539062 C 597.367188 409.539062 584.09375 402.207031 567.6875 398.945312 Z M 504.25 387.574219 L 539.609375 387.574219 C 540.511719 387.519531 541.410156 387.523438 542.308594 387.59375 C 543.210938 387.664062 544.097656 387.796875 544.980469 387.996094 C 545.859375 388.191406 546.722656 388.449219 547.566406 388.769531 C 548.410156 389.089844 549.226562 389.46875 550.015625 389.902344 C 550.804688 390.339844 551.558594 390.828125 552.28125 391.371094 C 553 391.914062 553.679688 392.507812 554.3125 393.148438 C 554.949219 393.785156 555.535156 394.46875 556.074219 395.191406 C 556.613281 395.914062 557.097656 396.671875 557.527344 397.464844 C 554.253906 397.160156 550.949219 396.996094 547.664062 396.996094 L 496.214844 396.996094 C 492.914062 396.996094 489.613281 397.160156 486.351562 397.464844 C 486.78125 396.671875 487.265625 395.917969 487.800781 395.195312 C 488.339844 394.472656 488.925781 393.789062 489.5625 393.152344 C 490.195312 392.511719 490.871094 391.921875 491.59375 391.378906 C 492.3125 390.835938 493.066406 390.34375 493.855469 389.910156 C 494.640625 389.472656 495.457031 389.09375 496.300781 388.773438 C 497.144531 388.457031 498.003906 388.195312 498.882812 388 C 499.761719 387.800781 500.652344 387.667969 501.550781 387.597656 C 502.449219 387.527344 503.347656 387.519531 504.25 387.574219 Z M 458.839844 415.832031 C 464.460938 411.070312 477.855469 406.414062 496.214844 406.414062 L 547.644531 406.414062 C 566.003906 406.414062 579.398438 411.070312 585.019531 415.832031 Z M 458.839844 415.832031 " fill-opacity="1" fill-rule="nonzero"/></g><g clip-path="url(#bba150fe25)"><path fill="#284a55" d="M 614.402344 298.570312 L 621.90625 290.894531 C 623.472656 289.269531 624.519531 287.363281 625.058594 285.175781 C 626.96875 286.855469 629.105469 288.171875 631.464844 289.125 C 633.824219 290.082031 636.277344 290.621094 638.820312 290.742188 C 640.589844 290.792969 642.300781 290.492188 643.945312 289.835938 C 645.589844 289.179688 647.039062 288.226562 648.292969 286.976562 L 655.855469 279.261719 C 661.898438 273.082031 660.261719 261.730469 652.132812 253.417969 L 629.574219 230.339844 C 628.542969 229.21875 627.410156 228.207031 626.183594 227.300781 C 624.953125 226.398438 623.648438 225.621094 622.269531 224.96875 C 620.890625 224.320312 619.460938 223.808594 617.980469 223.433594 C 616.503906 223.058594 615 222.832031 613.476562 222.75 C 611.707031 222.699219 609.996094 223.003906 608.351562 223.65625 C 606.707031 224.3125 605.257812 225.265625 604.003906 226.515625 L 596.421875 234.25 C 590.871094 239.925781 591.875 249.945312 598.363281 257.988281 C 596.132812 258.535156 594.207031 259.617188 592.585938 261.242188 L 554.816406 299.886719 C 553.25 301.511719 552.199219 303.417969 551.660156 305.605469 C 549.753906 303.914062 547.621094 302.59375 545.257812 301.636719 C 542.894531 300.683594 540.441406 300.152344 537.894531 300.042969 C 536.121094 299.992188 534.414062 300.296875 532.765625 300.949219 C 531.121094 301.605469 529.667969 302.558594 528.417969 303.8125 L 520.851562 311.539062 C 514.816406 317.71875 516.449219 329.070312 524.578125 337.382812 L 547.140625 360.460938 C 548.167969 361.589844 549.292969 362.605469 550.523438 363.511719 C 551.75 364.417969 553.054688 365.195312 554.4375 365.847656 C 555.816406 366.496094 557.25 367.003906 558.730469 367.371094 C 560.210938 367.742188 561.714844 367.960938 563.242188 368.03125 C 565.011719 368.082031 566.722656 367.777344 568.367188 367.125 C 570.015625 366.46875 571.464844 365.515625 572.71875 364.265625 L 580.261719 356.535156 C 585.8125 350.863281 584.8125 340.839844 578.320312 332.796875 C 580.550781 332.253906 582.476562 331.167969 584.097656 329.542969 L 590.625 322.875 L 675.304688 405.988281 C 676.964844 407.632812 678.882812 408.902344 681.046875 409.789062 C 683.210938 410.679688 685.464844 411.125 687.808594 411.121094 L 687.996094 411.121094 C 690.371094 411.097656 692.648438 410.621094 694.828125 409.683594 C 697.011719 408.75 698.925781 407.429688 700.578125 405.726562 C 701.003906 405.289062 701.40625 404.828125 701.785156 404.351562 C 702.164062 403.875 702.519531 403.378906 702.851562 402.867188 C 703.183594 402.351562 703.488281 401.824219 703.765625 401.28125 C 704.042969 400.738281 704.292969 400.183594 704.519531 399.617188 C 704.742188 399.050781 704.9375 398.472656 705.101562 397.886719 C 705.269531 397.296875 705.40625 396.707031 705.515625 396.105469 C 705.621094 395.503906 705.699219 394.898438 705.75 394.292969 C 705.796875 393.683594 705.816406 393.074219 705.800781 392.464844 C 705.789062 391.855469 705.75 391.25 705.675781 390.640625 C 705.605469 390.035156 705.5 389.4375 705.371094 388.839844 C 705.238281 388.246094 705.078125 387.65625 704.886719 387.078125 C 704.699219 386.496094 704.480469 385.929688 704.234375 385.371094 C 703.988281 384.8125 703.714844 384.269531 703.417969 383.738281 C 703.117188 383.207031 702.789062 382.691406 702.441406 382.191406 C 702.089844 381.691406 701.714844 381.210938 701.316406 380.75 C 700.917969 380.285156 700.496094 379.84375 700.054688 379.421875 Z M 603.179688 240.828125 L 610.746094 233.109375 C 611.519531 232.40625 612.429688 232.089844 613.472656 232.167969 C 615.277344 232.335938 616.984375 232.832031 618.601562 233.648438 C 620.214844 234.46875 621.625 235.550781 622.828125 236.90625 L 645.386719 259.980469 C 650 264.691406 651.160156 270.574219 649.105469 272.667969 L 641.5625 280.398438 C 640.789062 281.101562 639.882812 281.414062 638.839844 281.339844 C 637.035156 281.171875 635.324219 280.675781 633.710938 279.859375 C 632.09375 279.039062 630.6875 277.953125 629.484375 276.601562 L 618.21875 265.085938 L 606.953125 253.566406 C 602.292969 248.796875 601.136719 242.925781 603.179688 240.828125 Z M 599.351562 267.824219 C 600.128906 267.121094 601.035156 266.804688 602.082031 266.882812 C 603.878906 267.050781 605.582031 267.539062 607.191406 268.355469 C 608.804688 269.167969 610.210938 270.246094 611.414062 271.589844 L 611.476562 271.65625 C 616.050781 276.367188 617.203125 282.203125 615.15625 284.296875 L 607.546875 292.082031 L 590.941406 276.4375 Z M 573.523438 349.953125 L 565.980469 357.679688 C 565.203125 358.382812 564.292969 358.699219 563.25 358.621094 C 561.445312 358.453125 559.734375 357.960938 558.121094 357.140625 C 556.503906 356.324219 555.09375 355.238281 553.890625 353.886719 L 531.335938 330.808594 C 526.722656 326.101562 525.566406 320.21875 527.605469 318.121094 L 535.148438 310.394531 C 535.925781 309.691406 536.835938 309.378906 537.878906 309.453125 C 539.683594 309.621094 541.390625 310.113281 543.007812 310.933594 C 544.625 311.75 546.03125 312.835938 547.234375 314.191406 L 569.789062 337.265625 C 574.417969 341.984375 575.578125 347.855469 573.523438 349.953125 Z M 577.371094 322.960938 C 576.59375 323.660156 575.683594 323.976562 574.636719 323.902344 C 572.832031 323.730469 571.121094 323.238281 569.503906 322.417969 C 567.886719 321.601562 566.476562 320.515625 565.273438 319.164062 C 560.660156 314.453125 559.507812 308.578125 561.558594 306.480469 L 567.621094 300.277344 L 583.914062 316.289062 Z M 590.5 309.527344 L 574.210938 293.515625 L 584.355469 283.15625 L 600.960938 298.828125 Z M 693.828125 399.144531 C 693.050781 399.953125 692.144531 400.578125 691.117188 401.019531 C 690.085938 401.464844 689.011719 401.691406 687.890625 401.703125 C 686.769531 401.738281 685.683594 401.542969 684.644531 401.121094 C 683.601562 400.695312 682.691406 400.078125 681.914062 399.269531 L 597.230469 316.128906 L 607.816406 305.300781 L 693.582031 386.265625 C 694.015625 386.679688 694.402344 387.132812 694.742188 387.625 C 695.085938 388.117188 695.378906 388.636719 695.617188 389.183594 C 695.855469 389.730469 696.039062 390.296875 696.167969 390.882812 C 696.296875 391.464844 696.367188 392.058594 696.378906 392.65625 C 696.390625 393.253906 696.34375 393.847656 696.238281 394.4375 C 696.132812 395.023438 695.96875 395.597656 695.75 396.15625 C 695.53125 396.710938 695.261719 397.242188 694.9375 397.746094 C 694.613281 398.25 694.242188 398.714844 693.828125 399.144531 Z M 693.828125 399.144531 " fill-opacity="1" fill-rule="nonzero"/></g></svg>