<svg xmlns="http://www.w3.org/2000/svg" xmlns:xlink="http://www.w3.org/1999/xlink" width="1536" zoomAndPan="magnify" viewBox="0 0 1152 647.999998" height="864" preserveAspectRatio="xMidYMid meet" version="1.0"><defs><clipPath id="3c092f3e34"><path d="M 446.398438 194.398438 L 705.898438 194.398438 L 705.898438 453.898438 L 446.398438 453.898438 Z M 446.398438 194.398438 " clip-rule="nonzero"/></clipPath></defs><path fill="#284a55" d="M 537.226562 280.898438 L 545.875 280.898438 L 545.875 289.550781 L 537.226562 289.550781 Z M 537.226562 280.898438 " fill-opacity="1" fill-rule="nonzero"/><path fill="#284a55" d="M 537.226562 298.199219 L 545.875 298.199219 L 545.875 306.851562 L 537.226562 306.851562 Z M 537.226562 298.199219 " fill-opacity="1" fill-rule="nonzero"/><path fill="#284a55" d="M 537.226562 315.5 L 545.875 315.5 L 545.875 324.148438 L 537.226562 324.148438 Z M 537.226562 315.5 " fill-opacity="1" fill-rule="nonzero"/><path fill="#284a55" d="M 537.226562 332.800781 L 545.875 332.800781 L 545.875 341.449219 L 537.226562 341.449219 Z M 537.226562 332.800781 " fill-opacity="1" fill-rule="nonzero"/><path fill="#284a55" d="M 554.523438 280.898438 L 563.175781 280.898438 L 563.175781 289.550781 L 554.523438 289.550781 Z M 554.523438 280.898438 " fill-opacity="1" fill-rule="nonzero"/><path fill="#284a55" d="M 554.523438 298.199219 L 563.175781 298.199219 L 563.175781 306.851562 L 554.523438 306.851562 Z M 554.523438 298.199219 " fill-opacity="1" fill-rule="nonzero"/><path fill="#284a55" d="M 554.523438 315.5 L 563.175781 315.5 L 563.175781 324.148438 L 554.523438 324.148438 Z M 554.523438 315.5 " fill-opacity="1" fill-rule="nonzero"/><path fill="#284a55" d="M 554.523438 332.800781 L 563.175781 332.800781 L 563.175781 341.449219 L 554.523438 341.449219 Z M 554.523438 332.800781 " fill-opacity="1" fill-rule="nonzero"/><path fill="#284a55" d="M 571.824219 280.898438 L 580.476562 280.898438 L 580.476562 289.550781 L 571.824219 289.550781 Z M 571.824219 280.898438 " fill-opacity="1" fill-rule="nonzero"/><path fill="#284a55" d="M 571.824219 298.199219 L 580.476562 298.199219 L 580.476562 306.851562 L 571.824219 306.851562 Z M 571.824219 298.199219 " fill-opacity="1" fill-rule="nonzero"/><path fill="#284a55" d="M 571.824219 315.5 L 580.476562 315.5 L 580.476562 324.148438 L 571.824219 324.148438 Z M 571.824219 315.5 " fill-opacity="1" fill-rule="nonzero"/><path fill="#284a55" d="M 571.824219 332.800781 L 580.476562 332.800781 L 580.476562 341.449219 L 571.824219 341.449219 Z M 571.824219 332.800781 " fill-opacity="1" fill-rule="nonzero"/><path fill="#284a55" d="M 589.125 280.898438 L 597.773438 280.898438 L 597.773438 289.550781 L 589.125 289.550781 Z M 589.125 280.898438 " fill-opacity="1" fill-rule="nonzero"/><path fill="#284a55" d="M 554.523438 263.601562 L 563.175781 263.601562 L 563.175781 272.25 L 554.523438 272.25 Z M 554.523438 263.601562 " fill-opacity="1" fill-rule="nonzero"/><path fill="#284a55" d="M 571.824219 263.601562 L 580.476562 263.601562 L 580.476562 272.25 L 571.824219 272.25 Z M 571.824219 263.601562 " fill-opacity="1" fill-rule="nonzero"/><path fill="#284a55" d="M 589.125 263.601562 L 597.773438 263.601562 L 597.773438 272.25 L 589.125 272.25 Z M 589.125 263.601562 " fill-opacity="1" fill-rule="nonzero"/><path fill="#284a55" d="M 589.125 298.199219 L 597.773438 298.199219 L 597.773438 306.851562 L 589.125 306.851562 Z M 589.125 298.199219 " fill-opacity="1" fill-rule="nonzero"/><path fill="#284a55" d="M 589.125 315.5 L 597.773438 315.5 L 597.773438 324.148438 L 589.125 324.148438 Z M 589.125 315.5 " fill-opacity="1" fill-rule="nonzero"/><path fill="#284a55" d="M 589.125 332.800781 L 597.773438 332.800781 L 597.773438 341.449219 L 589.125 341.449219 Z M 589.125 332.800781 " fill-opacity="1" fill-rule="nonzero"/><path fill="#284a55" d="M 606.425781 280.898438 L 615.074219 280.898438 L 615.074219 289.550781 L 606.425781 289.550781 Z M 606.425781 280.898438 " fill-opacity="1" fill-rule="nonzero"/><path fill="#284a55" d="M 606.425781 298.199219 L 615.074219 298.199219 L 615.074219 306.851562 L 606.425781 306.851562 Z M 606.425781 298.199219 " fill-opacity="1" fill-rule="nonzero"/><path fill="#284a55" d="M 606.425781 315.5 L 615.074219 315.5 L 615.074219 324.148438 L 606.425781 324.148438 Z M 606.425781 315.5 " fill-opacity="1" fill-rule="nonzero"/><path fill="#284a55" d="M 606.425781 332.800781 L 615.074219 332.800781 L 615.074219 341.449219 L 606.425781 341.449219 Z M 606.425781 332.800781 " fill-opacity="1" fill-rule="nonzero"/><g clip-path="url(#3c092f3e34)"><path fill="#284a55" d="M 701.574219 259.273438 L 636.699219 259.273438 L 636.699219 198.726562 C 636.699219 196.332031 634.765625 194.398438 632.375 194.398438 L 519.925781 194.398438 C 517.535156 194.398438 515.601562 196.332031 515.601562 198.726562 L 515.601562 259.273438 L 450.726562 259.273438 C 448.332031 259.273438 446.398438 261.207031 446.398438 263.601562 L 446.398438 419.300781 C 446.398438 421.691406 448.332031 423.625 450.726562 423.625 L 459.765625 423.625 C 459.527344 425.035156 459.375 426.476562 459.375 427.949219 L 459.375 449.574219 C 459.375 451.964844 461.308594 453.898438 463.699219 453.898438 L 688.601562 453.898438 C 690.992188 453.898438 692.925781 451.964844 692.925781 449.574219 L 692.925781 427.949219 C 692.925781 426.476562 692.773438 425.035156 692.535156 423.625 L 701.574219 423.625 C 703.964844 423.625 705.898438 421.691406 705.898438 419.300781 L 705.898438 263.601562 C 705.898438 261.207031 703.964844 259.273438 701.574219 259.273438 Z M 632.375 380.375 C 632.375 385.144531 628.496094 389.023438 623.726562 389.023438 C 618.953125 389.023438 615.074219 385.144531 615.074219 380.375 C 615.074219 375.605469 618.953125 371.726562 623.726562 371.726562 C 628.496094 371.726562 632.375 375.605469 632.375 380.375 Z M 528.574219 371.726562 C 533.34375 371.726562 537.226562 375.605469 537.226562 380.375 C 537.226562 385.144531 533.34375 389.023438 528.574219 389.023438 C 523.804688 389.023438 519.925781 385.144531 519.925781 380.375 C 519.925781 375.605469 523.804688 371.726562 528.574219 371.726562 Z M 502.625 445.25 L 468.023438 445.25 L 468.023438 427.949219 C 468.023438 418.410156 475.785156 410.648438 485.324219 410.648438 C 494.867188 410.648438 502.625 418.410156 502.625 427.949219 Z M 476.675781 393.351562 C 476.675781 388.578125 480.554688 384.699219 485.324219 384.699219 C 490.09375 384.699219 493.976562 388.578125 493.976562 393.351562 C 493.976562 398.121094 490.09375 402 485.324219 402 C 480.554688 402 476.675781 398.121094 476.675781 393.351562 Z M 503.28125 409.257812 C 501.65625 407.691406 499.832031 406.328125 497.839844 405.230469 C 500.785156 402.125 502.625 397.960938 502.625 393.351562 C 502.625 383.808594 494.867188 376.050781 485.324219 376.050781 C 475.785156 376.050781 468.023438 383.808594 468.023438 393.351562 C 468.023438 397.960938 469.863281 402.125 472.8125 405.230469 C 468.683594 407.515625 465.253906 410.898438 462.886719 414.976562 L 455.050781 414.976562 L 455.050781 267.925781 L 515.601562 267.925781 L 515.601562 369.050781 C 512.941406 372.09375 511.273438 376.023438 511.273438 380.375 C 511.273438 384.984375 513.113281 389.152344 516.0625 392.253906 C 509.671875 395.789062 504.933594 401.945312 503.28125 409.257812 Z M 545.875 445.25 L 511.273438 445.25 L 511.273438 414.976562 C 511.273438 405.433594 519.035156 397.675781 528.574219 397.675781 C 538.117188 397.675781 545.875 405.433594 545.875 414.976562 Z M 597.773438 445.25 L 554.523438 445.25 L 554.523438 414.976562 C 554.523438 403.050781 564.226562 393.351562 576.148438 393.351562 C 588.074219 393.351562 597.773438 403.050781 597.773438 414.976562 Z M 563.175781 371.726562 C 563.175781 364.570312 568.996094 358.75 576.148438 358.75 C 583.304688 358.75 589.125 364.570312 589.125 371.726562 C 589.125 378.878906 583.304688 384.699219 576.148438 384.699219 C 568.996094 384.699219 563.175781 378.878906 563.175781 371.726562 Z M 602.488281 400.105469 C 599.601562 395.011719 595.285156 390.835938 590.082031 388.125 C 594.746094 384.15625 597.773438 378.316406 597.773438 371.726562 C 597.773438 359.800781 588.074219 350.101562 576.148438 350.101562 C 564.226562 350.101562 554.523438 359.800781 554.523438 371.726562 C 554.523438 378.316406 557.550781 384.15625 562.21875 388.125 C 557.015625 390.835938 552.699219 395.011719 549.8125 400.105469 C 547.539062 396.875 544.566406 394.175781 541.089844 392.253906 C 544.035156 389.152344 545.875 384.984375 545.875 380.375 C 545.875 370.835938 538.117188 363.074219 528.574219 363.074219 C 527.074219 363.074219 525.644531 363.324219 524.25 363.6875 L 524.25 203.050781 L 628.050781 203.050781 L 628.050781 363.6875 C 626.65625 363.324219 625.226562 363.074219 623.726562 363.074219 C 614.183594 363.074219 606.425781 370.835938 606.425781 380.375 C 606.425781 384.984375 608.261719 389.152344 611.210938 392.253906 C 607.738281 394.175781 604.761719 396.875 602.488281 400.105469 Z M 641.023438 427.949219 L 641.023438 445.25 L 606.425781 445.25 L 606.425781 414.976562 C 606.425781 405.433594 614.183594 397.675781 623.726562 397.675781 C 633.265625 397.675781 641.023438 405.433594 641.023438 414.976562 Z M 684.273438 445.25 L 649.675781 445.25 L 649.675781 427.949219 C 649.675781 418.410156 657.433594 410.648438 666.976562 410.648438 C 676.515625 410.648438 684.273438 418.410156 684.273438 427.949219 Z M 658.324219 393.351562 C 658.324219 388.578125 662.203125 384.699219 666.976562 384.699219 C 671.746094 384.699219 675.625 388.578125 675.625 393.351562 C 675.625 398.121094 671.746094 402 666.976562 402 C 662.203125 402 658.324219 398.121094 658.324219 393.351562 Z M 697.25 414.976562 L 689.414062 414.976562 C 687.046875 410.898438 683.617188 407.515625 679.488281 405.230469 C 682.4375 402.125 684.273438 397.960938 684.273438 393.351562 C 684.273438 383.808594 676.515625 376.050781 666.976562 376.050781 C 657.433594 376.050781 649.675781 383.808594 649.675781 393.351562 C 649.675781 397.960938 651.511719 402.125 654.460938 405.230469 C 652.472656 406.332031 650.648438 407.691406 649.023438 409.257812 C 647.371094 401.945312 642.632812 395.789062 636.242188 392.253906 C 639.1875 389.152344 641.023438 384.984375 641.023438 380.375 C 641.023438 376.023438 639.359375 372.09375 636.699219 369.050781 L 636.699219 267.925781 L 697.25 267.925781 Z M 697.25 414.976562 " fill-opacity="1" fill-rule="nonzero"/></g><path fill="#284a55" d="M 649.675781 293.875 L 658.324219 293.875 L 658.324219 363.074219 L 649.675781 363.074219 Z M 649.675781 293.875 " fill-opacity="1" fill-rule="nonzero"/><path fill="#284a55" d="M 675.625 293.875 L 684.273438 293.875 L 684.273438 363.074219 L 675.625 363.074219 Z M 675.625 293.875 " fill-opacity="1" fill-rule="nonzero"/><path fill="#284a55" d="M 468.023438 293.875 L 476.675781 293.875 L 476.675781 363.074219 L 468.023438 363.074219 Z M 468.023438 293.875 " fill-opacity="1" fill-rule="nonzero"/><path fill="#284a55" d="M 493.976562 293.875 L 502.625 293.875 L 502.625 363.074219 L 493.976562 363.074219 Z M 493.976562 293.875 " fill-opacity="1" fill-rule="nonzero"/><path fill="#284a55" d="M 550.199219 254.949219 L 602.101562 254.949219 C 604.492188 254.949219 606.425781 253.015625 606.425781 250.625 L 606.425781 216.023438 C 606.425781 213.632812 604.492188 211.699219 602.101562 211.699219 L 550.199219 211.699219 C 547.808594 211.699219 545.875 213.632812 545.875 216.023438 L 545.875 250.625 C 545.875 253.015625 547.808594 254.949219 550.199219 254.949219 Z M 554.523438 220.351562 L 597.773438 220.351562 L 597.773438 246.300781 L 554.523438 246.300781 Z M 554.523438 220.351562 " fill-opacity="1" fill-rule="nonzero"/></svg>